<svg xmlns="http://www.w3.org/2000/svg" xmlns:xlink="http://www.w3.org/1999/xlink" width="500" zoomAndPan="magnify" viewBox="0 0 375 374.999991" height="500" preserveAspectRatio="xMidYMid meet" version="1.0"><defs><clipPath id="a669868ffc"><path d="M 70 0 L 310.710938 0 L 310.710938 375 L 70 375 Z M 70 0 " clip-rule="nonzero"/></clipPath><clipPath id="6edb9bc52c"><path d="M 64.585938 0 L 305 0 L 305 375 L 64.585938 375 Z M 64.585938 0 " clip-rule="nonzero"/></clipPath></defs><g clip-path="url(#a669868ffc)"><path fill="#188edd" d="M 610.023438 321.84375 C 615.703125 336.859375 607.585938 353.503906 592.164062 357.96875 C 562.535156 366.894531 528.84375 371.359375 491.503906 371.359375 C 443.609375 371.359375 404.644531 353.90625 375.421875 319.8125 C 346.605469 286.125 331.992188 241.480469 331.992188 187.902344 C 331.992188 134.328125 346.199219 90.492188 374.207031 57.617188 C 405.457031 21.492188 449.292969 2.820312 504.898438 2.820312 C 534.933594 2.820312 563.34375 6.476562 589.726562 14.1875 C 605.960938 18.652344 614.082031 36.511719 607.992188 51.933594 C 602.714844 65.328125 588.105469 72.226562 574.304688 68.574219 C 553.199219 62.484375 530.46875 59.644531 506.117188 59.644531 C 465.121094 59.644531 435.898438 74.257812 417.230469 104.292969 C 403.023438 126.617188 395.71875 155.433594 395.71875 189.527344 C 395.71875 220.78125 403.429688 248.785156 419.257812 271.921875 C 438.738281 301.144531 465.121094 315.347656 500.433594 315.347656 C 527.628906 315.347656 552.386719 311.695312 574.304688 304.796875 C 588.511719 300.332031 603.933594 307.230469 609.210938 321.4375 Z M 926.203125 55.585938 C 958.671875 91.304688 974.90625 135.949219 974.90625 187.902344 C 974.90625 240.261719 958.265625 284.503906 926.203125 319.8125 C 893.730469 355.53125 851.113281 373.390625 799.566406 373.390625 C 748.019531 373.390625 705.402344 355.125 672.933594 319.8125 C 640.460938 284.503906 624.226562 239.855469 624.226562 187.902344 C 624.226562 135.949219 640.460938 91.304688 672.933594 55.585938 C 705.402344 19.867188 748.425781 1.605469 799.566406 1.605469 C 850.707031 1.605469 893.730469 19.867188 926.203125 55.585938 Z M 912.808594 187.089844 C 912.808594 150.15625 902.253906 119.308594 881.148438 94.550781 C 860.449219 69.792969 833.660156 58.023438 799.160156 58.023438 C 765.066406 58.023438 738.28125 69.792969 717.175781 94.550781 C 696.066406 119.308594 685.515625 150.5625 685.515625 187.089844 C 685.515625 224.027344 696.066406 254.875 717.175781 279.632812 C 737.875 304.390625 764.660156 316.160156 799.160156 316.160156 C 833.253906 316.160156 860.042969 304.390625 881.148438 279.632812 C 902.253906 255.277344 912.808594 224.027344 912.808594 187.089844 Z M 1249.28125 60.050781 C 1273.230469 89.679688 1285.8125 130.269531 1285.8125 180.191406 C 1285.8125 233.363281 1272.824219 277.195312 1246.847656 309.667969 C 1214.78125 349.445312 1164.859375 369.738281 1099.105469 369.738281 C 1084.496094 369.738281 1063.390625 368.519531 1035.382812 365.679688 C 1016.714844 364.054688 1002.101562 348.226562 1002.101562 329.148438 L 1002.101562 46.65625 C 1002.101562 27.988281 1016.308594 12.15625 1034.976562 10.535156 C 1072.320312 6.476562 1097.890625 4.851562 1113.3125 4.851562 C 1173.382812 4.445312 1219.246094 23.117188 1249.28125 60.050781 Z M 1221.683594 180.191406 C 1221.683594 99.828125 1185.152344 60.863281 1110.472656 60.863281 C 1098.703125 60.863281 1080.4375 62.082031 1056.488281 64.515625 L 1056.488281 311.289062 C 1070.695312 312.101562 1087.335938 312.914062 1106.820312 312.914062 C 1150.246094 312.914062 1180.6875 298.300781 1200.171875 267.863281 C 1214.78125 244.726562 1221.683594 215.503906 1221.683594 180.191406 Z M 1496.464844 8.097656 L 1341.417969 8.097656 C 1320.71875 8.097656 1304.078125 24.738281 1304.078125 45.4375 L 1304.078125 329.554688 C 1304.078125 350.253906 1320.71875 366.894531 1341.417969 366.894531 L 1496.464844 366.894531 C 1511.886719 366.894531 1524.875 354.3125 1524.875 338.484375 C 1524.875 322.65625 1512.292969 310.074219 1496.464844 310.074219 L 1367.394531 310.074219 L 1367.394531 206.167969 L 1479.011719 206.167969 C 1494.433594 206.167969 1507.421875 193.585938 1507.421875 177.757812 C 1507.421875 162.332031 1494.839844 149.34375 1479.011719 149.34375 L 1366.988281 149.34375 L 1366.988281 64.109375 L 1496.058594 64.109375 C 1511.480469 64.109375 1524.46875 51.527344 1524.46875 35.699219 C 1524.46875 20.679688 1511.886719 8.097656 1496.464844 8.097656 Z M 272.734375 11.34375 C 259.746094 -1.644531 238.640625 -1.644531 225.652344 11.34375 L 85.625 151.78125 C 65.738281 171.667969 65.738281 203.734375 85.625 223.621094 L 226.058594 364.054688 C 239.046875 377.042969 260.152344 377.042969 273.140625 364.054688 C 286.128906 351.066406 286.128906 329.960938 273.140625 316.972656 L 143.664062 187.496094 L 272.734375 58.425781 C 285.722656 45.4375 285.722656 24.332031 272.734375 11.34375 Z M 2084.988281 151.78125 L 1944.554688 11.34375 C 1931.566406 -1.644531 1910.460938 -1.644531 1897.472656 11.34375 C 1884.484375 24.332031 1884.484375 45.4375 1897.472656 58.425781 L 2026.949219 187.496094 L 1897.472656 316.972656 C 1884.484375 329.960938 1884.484375 351.066406 1897.472656 364.054688 C 1910.460938 377.042969 1931.566406 377.042969 1944.554688 364.054688 L 2084.988281 223.621094 C 2104.878906 203.734375 2104.878906 171.667969 2084.988281 151.78125 Z M 1817.515625 -81.195312 C 1800.46875 -88.09375 1780.984375 -79.976562 1774.085938 -63.335938 L 1576.828125 412.761719 C 1569.925781 429.808594 1578.046875 449.289062 1594.6875 456.191406 C 1611.734375 463.089844 1631.214844 454.972656 1638.117188 438.332031 L 1835.375 -37.765625 C 1842.679688 -54.8125 1834.5625 -73.890625 1817.515625 -81.195312 Z M 1817.515625 -81.195312 " fill-opacity="1" fill-rule="nonzero"/></g><g clip-path="url(#6edb9bc52c)"><path fill="#10609d" d="M -235.042969 321.84375 C -240.722656 336.859375 -232.605469 353.503906 -217.183594 357.96875 C -187.554688 366.894531 -153.867188 371.359375 -116.523438 371.359375 C -68.632812 371.359375 -29.667969 353.90625 -0.445312 319.8125 C 28.375 286.125 42.984375 241.480469 42.984375 187.902344 C 42.984375 134.328125 28.78125 90.492188 0.773438 57.617188 C -30.480469 21.492188 -74.3125 2.820312 -129.917969 2.820312 C -159.953125 2.820312 -188.367188 6.476562 -214.75 14.1875 C -230.984375 18.652344 -239.101562 36.511719 -233.011719 51.933594 C -227.734375 65.328125 -213.125 72.226562 -199.324219 68.574219 C -178.21875 62.484375 -155.488281 59.644531 -131.136719 59.644531 C -90.144531 59.644531 -60.917969 74.257812 -42.25 104.292969 C -28.042969 126.617188 -20.738281 155.433594 -20.738281 189.527344 C -20.738281 220.78125 -28.449219 248.785156 -44.277344 271.921875 C -63.761719 301.144531 -90.144531 315.347656 -125.453125 315.347656 C -152.648438 315.347656 -177.40625 311.695312 -199.324219 304.796875 C -213.53125 300.332031 -228.953125 307.230469 -234.230469 321.4375 Z M -551.222656 55.585938 C -583.691406 91.304688 -599.929688 135.949219 -599.929688 187.902344 C -599.929688 240.261719 -583.289062 284.503906 -551.222656 319.8125 C -518.753906 355.53125 -476.136719 373.390625 -424.589844 373.390625 C -373.042969 373.390625 -330.425781 355.125 -297.953125 319.8125 C -265.484375 284.503906 -249.246094 239.855469 -249.246094 187.902344 C -249.246094 135.949219 -265.484375 91.304688 -297.953125 55.585938 C -330.425781 19.867188 -373.449219 1.605469 -424.589844 1.605469 C -475.730469 1.605469 -518.753906 19.867188 -551.222656 55.585938 Z M -537.828125 187.089844 C -537.828125 150.15625 -527.277344 119.308594 -506.171875 94.550781 C -485.46875 69.792969 -458.683594 58.023438 -424.183594 58.023438 C -390.089844 58.023438 -363.300781 69.792969 -342.195312 94.550781 C -321.089844 119.308594 -310.535156 150.5625 -310.535156 187.089844 C -310.535156 224.027344 -321.089844 254.875 -342.195312 279.632812 C -362.894531 304.390625 -389.683594 316.160156 -424.183594 316.160156 C -458.277344 316.160156 -485.0625 304.390625 -506.171875 279.632812 C -527.277344 255.277344 -537.828125 224.027344 -537.828125 187.089844 Z M -874.304688 60.050781 C -898.25 89.679688 -910.832031 130.269531 -910.832031 180.191406 C -910.832031 233.363281 -897.84375 277.195312 -871.867188 309.667969 C -839.804688 349.445312 -789.878906 369.738281 -724.128906 369.738281 C -709.515625 369.738281 -688.410156 368.519531 -660.40625 365.679688 C -641.734375 364.054688 -627.121094 348.226562 -627.121094 329.148438 L -627.121094 46.65625 C -627.121094 27.988281 -641.328125 12.15625 -660 10.535156 C -697.339844 6.476562 -722.910156 4.851562 -738.332031 4.851562 C -798.402344 4.445312 -844.269531 23.117188 -874.304688 60.050781 Z M -846.703125 180.191406 C -846.703125 99.828125 -810.175781 60.863281 -735.492188 60.863281 C -723.722656 60.863281 -705.457031 62.082031 -681.511719 64.515625 L -681.511719 311.289062 C -695.714844 312.101562 -712.355469 312.914062 -731.839844 312.914062 C -775.269531 312.914062 -805.710938 298.300781 -825.191406 267.863281 C -839.804688 244.726562 -846.703125 215.503906 -846.703125 180.191406 Z M -1121.484375 8.097656 L -966.4375 8.097656 C -945.738281 8.097656 -929.097656 24.738281 -929.097656 45.4375 L -929.097656 329.554688 C -929.097656 350.253906 -945.738281 366.894531 -966.4375 366.894531 L -1121.484375 366.894531 C -1136.90625 366.894531 -1149.894531 354.3125 -1149.894531 338.484375 C -1149.894531 322.65625 -1137.3125 310.074219 -1121.484375 310.074219 L -992.414062 310.074219 L -992.414062 206.167969 L -1104.03125 206.167969 C -1119.453125 206.167969 -1132.441406 193.585938 -1132.441406 177.757812 C -1132.441406 162.332031 -1119.859375 149.34375 -1104.03125 149.34375 L -992.007812 149.34375 L -992.007812 64.109375 L -1121.078125 64.109375 C -1136.5 64.109375 -1149.488281 51.527344 -1149.488281 35.699219 C -1149.488281 20.679688 -1136.90625 8.097656 -1121.484375 8.097656 Z M 102.242188 11.34375 C 115.230469 -1.644531 136.339844 -1.644531 149.328125 11.34375 L 289.355469 151.78125 C 309.242188 171.667969 309.242188 203.734375 289.355469 223.621094 L 148.921875 364.054688 C 135.933594 377.042969 114.828125 377.042969 101.839844 364.054688 C 88.851562 351.066406 88.851562 329.960938 101.839844 316.972656 L 231.3125 187.496094 L 102.242188 58.425781 C 89.257812 45.4375 89.257812 24.332031 102.242188 11.34375 Z M -1710.011719 151.78125 L -1569.574219 11.34375 C -1556.585938 -1.644531 -1535.480469 -1.644531 -1522.492188 11.34375 C -1509.503906 24.332031 -1509.503906 45.4375 -1522.492188 58.425781 L -1651.96875 187.496094 L -1522.492188 316.972656 C -1509.503906 329.960938 -1509.503906 351.066406 -1522.492188 364.054688 C -1535.480469 377.042969 -1556.585938 377.042969 -1569.574219 364.054688 L -1710.011719 223.621094 C -1729.898438 203.734375 -1729.898438 171.667969 -1710.011719 151.78125 Z M -1442.535156 -81.195312 C -1425.488281 -88.09375 -1406.007812 -79.976562 -1399.105469 -63.335938 L -1201.847656 412.761719 C -1194.949219 429.808594 -1203.066406 449.289062 -1219.707031 456.191406 C -1236.753906 463.089844 -1256.234375 454.972656 -1263.136719 438.332031 L -1460.394531 -37.765625 C -1467.699219 -54.8125 -1459.582031 -73.890625 -1442.535156 -81.195312 Z M -1442.535156 -81.195312 " fill-opacity="1" fill-rule="nonzero"/></g></svg>