<svg xmlns="http://www.w3.org/2000/svg" xmlns:xlink="http://www.w3.org/1999/xlink" width="1920" zoomAndPan="magnify" viewBox="0 0 1440 809.999993" height="1080" preserveAspectRatio="xMidYMid meet" version="1.0"><defs><g/><clipPath id="e74836472a"><path d="M 441 153 L 1290.53125 153 L 1290.53125 603 L 441 603 Z M 441 153 " clip-rule="nonzero"/></clipPath><clipPath id="3ad9bbd52d"><path d="M 917 394 L 1290.53125 394 L 1290.53125 607 L 917 607 Z M 917 394 " clip-rule="nonzero"/></clipPath><clipPath id="1cf2b57ad7"><path d="M 157 20 L 479.863281 20 L 479.863281 750 L 157 750 Z M 157 20 " clip-rule="nonzero"/></clipPath><clipPath id="1e6acabd4f"><path d="M 149.113281 20 L 472 20 L 472 750 L 149.113281 750 Z M 149.113281 20 " clip-rule="nonzero"/></clipPath><clipPath id="4d49084096"><path d="M 441 153 L 884.78125 153 L 884.78125 603 L 441 603 Z M 441 153 " clip-rule="nonzero"/></clipPath></defs><g clip-path="url(#e74836472a)"><path fill="#188edd" d="M 1290.523438 223.246094 C 1269.785156 196.90625 1196.738281 153.921875 1130.097656 154.0625 C 1035.980469 154.269531 978.660156 185.738281 922.027344 269.53125 C 879.878906 331.890625 821 408.328125 799.195312 435.519531 C 780.785156 458.476562 689.921875 556.019531 596.597656 490.585938 C 542.511719 452.660156 546.101562 385.214844 544.753906 367.691406 C 542.359375 336.566406 614.730469 163.289062 776.0625 296.667969 L 837.480469 224.046875 C 837.480469 224.046875 779.25 157.011719 690.183594 153.820312 C 612.394531 151.03125 539.964844 176.164062 497.691406 230.960938 C 463.082031 275.820312 430.15625 354.242188 445.847656 421.152344 C 461.003906 485.800781 489.710938 524.101562 512.050781 543.253906 C 534.382812 562.40625 594.203125 602.304688 652.429688 602.304688 C 739.367188 602.304688 793.605469 574.371094 827.90625 537.664062 C 862.199219 500.957031 908.261719 449.710938 939.570312 404.394531 C 960.347656 374.328125 1011.359375 305.976562 1024.65625 290.542969 C 1037.941406 275.109375 1069.328125 246.777344 1102.289062 245.847656 C 1168.136719 243.996094 1207.773438 274.601562 1227.515625 294.265625 Z M 1290.523438 223.246094 " fill-opacity="1" fill-rule="nonzero"/></g><g clip-path="url(#3ad9bbd52d)"><path fill="#188edd" d="M 1229.71875 456.011719 C 1229.71875 456.011719 1175.484375 507.085938 1123.902344 507.617188 C 1095.941406 507.90625 1073.570312 502.816406 1051.238281 485.261719 C 1037.835938 474.734375 1006.570312 437.382812 993.808594 394.820312 L 917.765625 494.839844 C 917.765625 494.839844 974.109375 557.59375 1001.246094 574.105469 C 1039.269531 597.25 1101.394531 618.933594 1171.585938 599.25 C 1231.316406 582.496094 1274.546875 552.222656 1290.5 541.851562 Z M 1229.71875 456.011719 " fill-opacity="1" fill-rule="nonzero"/></g><g fill="#000000" fill-opacity="1"><g transform="translate(157.641757, 779.723249)"><g><path d="M 54.296875 0.96875 C 37.546875 0.96875 24.742188 -4.378906 15.890625 -15.078125 C 8.648438 -23.828125 5.03125 -34.632812 5.03125 -47.5 L 5.03125 -48.140625 C 5.03125 -61.109375 8.648438 -71.96875 15.890625 -80.71875 C 24.640625 -91.3125 37.441406 -96.609375 54.296875 -96.609375 C 66.941406 -96.609375 77.367188 -93.769531 85.578125 -88.09375 C 93.796875 -82.425781 98.71875 -74.835938 100.34375 -65.328125 L 77.640625 -65.328125 C 77.097656 -70.191406 74.742188 -73.890625 70.578125 -76.421875 C 66.421875 -78.960938 60.992188 -80.234375 54.296875 -80.234375 C 45.867188 -80.234375 39.195312 -77.207031 34.28125 -71.15625 C 29.363281 -65.101562 26.90625 -57.21875 26.90625 -47.5 C 26.90625 -37.875 29.390625 -30.117188 34.359375 -24.234375 C 39.328125 -18.347656 45.972656 -15.40625 54.296875 -15.40625 C 60.992188 -15.40625 66.421875 -16.671875 70.578125 -19.203125 C 74.742188 -21.742188 77.097656 -25.445312 77.640625 -30.3125 L 100.34375 -30.3125 C 98.71875 -20.90625 93.769531 -13.335938 85.5 -7.609375 C 77.238281 -1.890625 66.835938 0.96875 54.296875 0.96875 Z M 54.296875 0.96875 "/></g></g></g><g fill="#000000" fill-opacity="1"><g transform="translate(263.00212, 779.723249)"><g><path d="M 75.046875 -8.90625 C 68.347656 -2.320312 58.351562 0.96875 45.0625 0.96875 C 31.769531 0.96875 21.773438 -2.320312 15.078125 -8.90625 C 8.378906 -15.5 5.03125 -24.09375 5.03125 -34.6875 C 5.03125 -45.28125 8.378906 -53.898438 15.078125 -60.546875 C 21.773438 -67.191406 31.769531 -70.515625 45.0625 -70.515625 C 58.351562 -70.515625 68.347656 -67.191406 75.046875 -60.546875 C 81.742188 -53.898438 85.09375 -45.28125 85.09375 -34.6875 C 85.09375 -24.09375 81.742188 -15.5 75.046875 -8.90625 Z M 45.0625 -14.75 C 50.570312 -14.75 54.972656 -16.367188 58.265625 -19.609375 C 61.566406 -22.847656 63.21875 -27.875 63.21875 -34.6875 C 63.21875 -41.5 61.539062 -46.550781 58.1875 -49.84375 C 54.84375 -53.132812 50.46875 -54.78125 45.0625 -54.78125 C 39.769531 -54.78125 35.421875 -53.101562 32.015625 -49.75 C 28.609375 -46.40625 26.90625 -41.382812 26.90625 -34.6875 C 26.90625 -27.988281 28.609375 -22.988281 32.015625 -19.6875 C 35.421875 -16.394531 39.769531 -14.75 45.0625 -14.75 Z M 45.0625 -14.75 "/></g></g></g><g fill="#000000" fill-opacity="1"><g transform="translate(353.125794, 779.723249)"><g><path d="M 34.6875 0.96875 C 26.039062 0.96875 18.9375 -2.539062 13.375 -9.5625 C 7.8125 -16.582031 5.03125 -25.066406 5.03125 -35.015625 C 5.03125 -45.816406 7.890625 -54.429688 13.609375 -60.859375 C 19.335938 -67.296875 27.441406 -70.515625 37.921875 -70.515625 C 48.410156 -70.515625 56.410156 -67.757812 61.921875 -62.25 L 61.921875 -94.828125 L 83.796875 -94.828125 L 83.796875 0 L 63.21875 0 L 61.921875 -7.9375 C 56.191406 -2 47.113281 0.96875 34.6875 0.96875 Z M 43.109375 -14.75 C 48.191406 -14.75 52.597656 -16.179688 56.328125 -19.046875 C 60.054688 -21.910156 61.921875 -25.445312 61.921875 -29.65625 L 61.921875 -40.515625 C 61.921875 -44.628906 60.164062 -48.035156 56.65625 -50.734375 C 53.144531 -53.429688 49.117188 -54.78125 44.578125 -54.78125 C 39.390625 -54.78125 35.144531 -53.347656 31.84375 -50.484375 C 28.550781 -47.628906 26.90625 -43.066406 26.90625 -36.796875 L 26.90625 -35.015625 C 26.90625 -29.066406 28.472656 -24.203125 31.609375 -20.421875 C 34.742188 -16.640625 38.578125 -14.75 43.109375 -14.75 Z M 43.109375 -14.75 "/></g></g></g><g fill="#000000" fill-opacity="1"><g transform="translate(445.194556, 779.723249)"><g><path d="M 44.578125 0.96875 C 31.390625 0.96875 21.5 -2.378906 14.90625 -9.078125 C 8.320312 -15.773438 5.03125 -24.3125 5.03125 -34.6875 C 5.03125 -45.28125 8.242188 -53.898438 14.671875 -60.546875 C 21.097656 -67.191406 30.90625 -70.515625 44.09375 -70.515625 C 57.164062 -70.515625 66.804688 -67.191406 73.015625 -60.546875 C 79.234375 -53.898438 82.34375 -45.28125 82.34375 -34.6875 L 82.34375 -26.75 L 26.90625 -26.75 C 27.550781 -22.207031 29.304688 -19.070312 32.171875 -17.34375 C 35.035156 -15.613281 39.113281 -14.75 44.40625 -14.75 C 50.789062 -14.75 54.953125 -16.800781 56.890625 -20.90625 L 78.9375 -20.90625 C 78.1875 -14.644531 74.566406 -9.429688 68.078125 -5.265625 C 61.597656 -1.109375 53.765625 0.96875 44.578125 0.96875 Z M 27.0625 -42.140625 L 60.78125 -42.140625 C 59.269531 -47.109375 57.21875 -50.457031 54.625 -52.1875 C 52.03125 -53.914062 48.460938 -54.78125 43.921875 -54.78125 C 39.390625 -54.78125 35.828125 -53.914062 33.234375 -52.1875 C 30.640625 -50.457031 28.582031 -47.109375 27.0625 -42.140625 Z M 27.0625 -42.140625 "/></g></g></g><g fill="#000000" fill-opacity="1"><g transform="translate(531.752173, 779.723249)"><g><path d="M 54.296875 0.96875 C 37.546875 0.96875 24.742188 -4.378906 15.890625 -15.078125 C 8.648438 -23.828125 5.03125 -34.632812 5.03125 -47.5 L 5.03125 -48.140625 C 5.03125 -61.109375 8.648438 -71.96875 15.890625 -80.71875 C 24.640625 -91.3125 37.441406 -96.609375 54.296875 -96.609375 C 66.941406 -96.609375 77.367188 -93.769531 85.578125 -88.09375 C 93.796875 -82.425781 98.71875 -74.835938 100.34375 -65.328125 L 77.640625 -65.328125 C 77.097656 -70.191406 74.742188 -73.890625 70.578125 -76.421875 C 66.421875 -78.960938 60.992188 -80.234375 54.296875 -80.234375 C 45.867188 -80.234375 39.195312 -77.207031 34.28125 -71.15625 C 29.363281 -65.101562 26.90625 -57.21875 26.90625 -47.5 C 26.90625 -37.875 29.390625 -30.117188 34.359375 -24.234375 C 39.328125 -18.347656 45.972656 -15.40625 54.296875 -15.40625 C 60.992188 -15.40625 66.421875 -16.671875 70.578125 -19.203125 C 74.742188 -21.742188 77.097656 -25.445312 77.640625 -30.3125 L 100.34375 -30.3125 C 98.71875 -20.90625 93.769531 -13.335938 85.5 -7.609375 C 77.238281 -1.890625 66.835938 0.96875 54.296875 0.96875 Z M 54.296875 0.96875 "/></g></g></g><g fill="#000000" fill-opacity="1"><g transform="translate(637.112536, 779.723249)"><g><path d="M 8.265625 0 L 8.265625 -94.828125 L 30.15625 -94.828125 L 30.15625 -62.40625 C 35.34375 -67.8125 43.015625 -70.515625 53.171875 -70.515625 C 62.679688 -70.515625 70.082031 -67.835938 75.375 -62.484375 C 80.664062 -57.140625 83.3125 -49.601562 83.3125 -39.875 L 83.3125 0 L 61.4375 0 L 61.4375 -37.4375 C 61.4375 -43.8125 60.191406 -48.296875 57.703125 -50.890625 C 55.222656 -53.484375 51.550781 -54.78125 46.6875 -54.78125 C 42.6875 -54.78125 38.929688 -53.210938 35.421875 -50.078125 C 31.910156 -46.953125 30.15625 -43.335938 30.15625 -39.234375 L 30.15625 0 Z M 8.265625 0 "/></g></g></g><g fill="#000000" fill-opacity="1"><g transform="translate(727.074096, 779.723249)"><g><path d="M 28.53125 0.96875 C 22.039062 0.96875 16.390625 -0.8125 11.578125 -4.375 C 6.773438 -7.9375 4.375 -13.125 4.375 -19.9375 C 4.375 -24.800781 5.941406 -28.878906 9.078125 -32.171875 C 12.210938 -35.472656 16.585938 -37.820312 22.203125 -39.21875 C 27.828125 -40.625 33.148438 -41.570312 38.171875 -42.0625 C 43.191406 -42.550781 49 -42.796875 55.59375 -42.796875 C 55.59375 -47.222656 54.40625 -50.328125 52.03125 -52.109375 C 49.65625 -53.890625 46.304688 -54.78125 41.984375 -54.78125 C 33.117188 -54.78125 28.523438 -52.457031 28.203125 -47.8125 L 8.421875 -47.8125 C 10.804688 -62.945312 21.671875 -70.515625 41.015625 -70.515625 C 54.304688 -70.515625 63.707031 -67.863281 69.21875 -62.5625 C 74.726562 -57.269531 77.484375 -49.003906 77.484375 -37.765625 L 77.484375 0 L 57.0625 0 L 55.59375 -7.625 C 51.0625 -1.894531 42.039062 0.96875 28.53125 0.96875 Z M 40.203125 -14.75 C 42.035156 -14.75 44.570312 -15.289062 47.8125 -16.375 C 51.0625 -17.457031 53.65625 -18.804688 55.59375 -20.421875 L 55.59375 -29.5 C 48.46875 -29.5 41.769531 -28.820312 35.5 -27.46875 C 29.226562 -26.125 26.09375 -23.882812 26.09375 -20.75 C 26.09375 -16.75 30.796875 -14.75 40.203125 -14.75 Z M 40.203125 -14.75 "/></g></g></g><g fill="#000000" fill-opacity="1"><g transform="translate(810.389826, 779.723249)"><g><path d="M 30.15625 0.96875 C 15.019531 0.96875 7.453125 -9.238281 7.453125 -29.65625 L 7.453125 -94.828125 L 29.34375 -94.828125 L 29.34375 -24.640625 C 29.34375 -18.585938 32.53125 -15.289062 38.90625 -14.75 L 38.90625 0.328125 C 36.414062 0.753906 33.5 0.96875 30.15625 0.96875 Z M 30.15625 0.96875 "/></g></g></g><g fill="#000000" fill-opacity="1"><g transform="translate(853.182349, 779.723249)"><g><path d="M 30.15625 0.96875 C 15.019531 0.96875 7.453125 -9.238281 7.453125 -29.65625 L 7.453125 -94.828125 L 29.34375 -94.828125 L 29.34375 -24.640625 C 29.34375 -18.585938 32.53125 -15.289062 38.90625 -14.75 L 38.90625 0.328125 C 36.414062 0.753906 33.5 0.96875 30.15625 0.96875 Z M 30.15625 0.96875 "/></g></g></g><g fill="#000000" fill-opacity="1"><g transform="translate(895.974871, 779.723249)"><g><path d="M 44.578125 0.96875 C 31.390625 0.96875 21.5 -2.378906 14.90625 -9.078125 C 8.320312 -15.773438 5.03125 -24.3125 5.03125 -34.6875 C 5.03125 -45.28125 8.242188 -53.898438 14.671875 -60.546875 C 21.097656 -67.191406 30.90625 -70.515625 44.09375 -70.515625 C 57.164062 -70.515625 66.804688 -67.191406 73.015625 -60.546875 C 79.234375 -53.898438 82.34375 -45.28125 82.34375 -34.6875 L 82.34375 -26.75 L 26.90625 -26.75 C 27.550781 -22.207031 29.304688 -19.070312 32.171875 -17.34375 C 35.035156 -15.613281 39.113281 -14.75 44.40625 -14.75 C 50.789062 -14.75 54.953125 -16.800781 56.890625 -20.90625 L 78.9375 -20.90625 C 78.1875 -14.644531 74.566406 -9.429688 68.078125 -5.265625 C 61.597656 -1.109375 53.765625 0.96875 44.578125 0.96875 Z M 27.0625 -42.140625 L 60.78125 -42.140625 C 59.269531 -47.109375 57.21875 -50.457031 54.625 -52.1875 C 52.03125 -53.914062 48.460938 -54.78125 43.921875 -54.78125 C 39.390625 -54.78125 35.828125 -53.914062 33.234375 -52.1875 C 30.640625 -50.457031 28.582031 -47.109375 27.0625 -42.140625 Z M 27.0625 -42.140625 "/></g></g></g><g fill="#000000" fill-opacity="1"><g transform="translate(982.532488, 779.723249)"><g><path d="M 8.265625 0 L 8.265625 -68.890625 L 28.859375 -68.890625 L 30.15625 -62.40625 C 35.34375 -67.8125 43.015625 -70.515625 53.171875 -70.515625 C 62.679688 -70.515625 70.082031 -67.835938 75.375 -62.484375 C 80.664062 -57.140625 83.3125 -49.601562 83.3125 -39.875 L 83.3125 0 L 61.4375 0 L 61.4375 -37.4375 C 61.4375 -43.8125 60.191406 -48.296875 57.703125 -50.890625 C 55.222656 -53.484375 51.550781 -54.78125 46.6875 -54.78125 C 42.6875 -54.78125 38.929688 -53.210938 35.421875 -50.078125 C 31.910156 -46.953125 30.15625 -43.335938 30.15625 -39.234375 L 30.15625 0 Z M 8.265625 0 "/></g></g></g><g fill="#000000" fill-opacity="1"><g transform="translate(1072.494049, 779.723249)"><g><path d="M 44.578125 32.90625 C 35.710938 32.90625 27.796875 30.660156 20.828125 26.171875 C 13.859375 21.691406 9.722656 16.535156 8.421875 10.703125 L 32.09375 10.703125 C 33.5 13.296875 35.253906 15.023438 37.359375 15.890625 C 39.460938 16.753906 42.191406 17.1875 45.546875 17.1875 C 56.460938 17.1875 61.921875 11.78125 61.921875 0.96875 L 61.921875 -7.9375 C 56.191406 -2 47.113281 0.96875 34.6875 0.96875 C 26.039062 0.96875 18.9375 -2.539062 13.375 -9.5625 C 7.8125 -16.582031 5.03125 -25.066406 5.03125 -35.015625 C 5.03125 -45.816406 7.890625 -54.429688 13.609375 -60.859375 C 19.335938 -67.296875 27.441406 -70.515625 37.921875 -70.515625 C 48.410156 -70.515625 56.410156 -67.757812 61.921875 -62.25 L 63.21875 -68.890625 L 83.796875 -68.890625 L 83.796875 -4.703125 C 83.796875 8.160156 80.796875 17.644531 74.796875 23.75 C 68.804688 29.851562 58.734375 32.90625 44.578125 32.90625 Z M 43.109375 -14.75 C 48.191406 -14.75 52.597656 -16.179688 56.328125 -19.046875 C 60.054688 -21.910156 61.921875 -25.445312 61.921875 -29.65625 L 61.921875 -40.515625 C 61.921875 -44.628906 60.164062 -48.035156 56.65625 -50.734375 C 53.144531 -53.429688 49.117188 -54.78125 44.578125 -54.78125 C 39.390625 -54.78125 35.144531 -53.347656 31.84375 -50.484375 C 28.550781 -47.628906 26.90625 -43.066406 26.90625 -36.796875 L 26.90625 -35.015625 C 26.90625 -29.066406 28.472656 -24.203125 31.609375 -20.421875 C 34.742188 -16.640625 38.578125 -14.75 43.109375 -14.75 Z M 43.109375 -14.75 "/></g></g></g><g fill="#000000" fill-opacity="1"><g transform="translate(1164.562864, 779.723249)"><g><path d="M 44.578125 0.96875 C 31.390625 0.96875 21.5 -2.378906 14.90625 -9.078125 C 8.320312 -15.773438 5.03125 -24.3125 5.03125 -34.6875 C 5.03125 -45.28125 8.242188 -53.898438 14.671875 -60.546875 C 21.097656 -67.191406 30.90625 -70.515625 44.09375 -70.515625 C 57.164062 -70.515625 66.804688 -67.191406 73.015625 -60.546875 C 79.234375 -53.898438 82.34375 -45.28125 82.34375 -34.6875 L 82.34375 -26.75 L 26.90625 -26.75 C 27.550781 -22.207031 29.304688 -19.070312 32.171875 -17.34375 C 35.035156 -15.613281 39.113281 -14.75 44.40625 -14.75 C 50.789062 -14.75 54.953125 -16.800781 56.890625 -20.90625 L 78.9375 -20.90625 C 78.1875 -14.644531 74.566406 -9.429688 68.078125 -5.265625 C 61.597656 -1.109375 53.765625 0.96875 44.578125 0.96875 Z M 27.0625 -42.140625 L 60.78125 -42.140625 C 59.269531 -47.109375 57.21875 -50.457031 54.625 -52.1875 C 52.03125 -53.914062 48.460938 -54.78125 43.921875 -54.78125 C 39.390625 -54.78125 35.828125 -53.914062 33.234375 -52.1875 C 30.640625 -50.457031 28.582031 -47.109375 27.0625 -42.140625 Z M 27.0625 -42.140625 "/></g></g></g><g clip-path="url(#1cf2b57ad7)"><path fill="#188edd" d="M 882.878906 565.839844 C 890.523438 586.042969 879.605469 608.429688 858.855469 614.4375 C 818.996094 626.449219 773.671875 632.457031 723.4375 632.457031 C 659.007812 632.457031 606.585938 608.976562 567.273438 563.109375 C 528.503906 517.789062 508.847656 457.722656 508.847656 385.648438 C 508.847656 313.570312 527.957031 254.597656 565.632812 210.371094 C 607.679688 161.773438 666.652344 136.65625 741.457031 136.65625 C 781.863281 136.65625 820.085938 141.570312 855.578125 151.945312 C 877.421875 157.949219 888.339844 181.976562 880.152344 202.726562 C 873.050781 220.746094 853.394531 230.027344 834.828125 225.113281 C 806.4375 216.921875 775.859375 213.101562 743.09375 213.101562 C 687.945312 213.101562 648.632812 232.757812 623.515625 273.164062 C 604.402344 303.195312 594.574219 341.964844 594.574219 387.832031 C 594.574219 429.875 604.949219 467.554688 626.242188 498.675781 C 652.453125 537.992188 687.945312 557.101562 735.449219 557.101562 C 772.035156 557.101562 805.34375 552.1875 834.828125 542.90625 C 853.941406 536.898438 874.691406 546.183594 881.789062 565.292969 Z M 1308.242188 207.640625 C 1351.925781 255.691406 1373.765625 315.753906 1373.765625 385.648438 C 1373.765625 456.085938 1351.378906 515.605469 1308.242188 563.109375 C 1264.558594 611.160156 1207.226562 635.183594 1137.878906 635.183594 C 1068.53125 635.183594 1011.199219 610.613281 967.515625 563.109375 C 923.832031 515.605469 901.992188 455.539062 901.992188 385.648438 C 901.992188 315.753906 923.832031 255.691406 967.515625 207.640625 C 1011.199219 159.589844 1069.078125 135.015625 1137.878906 135.015625 C 1206.679688 135.015625 1264.558594 159.589844 1308.242188 207.640625 Z M 1290.222656 384.554688 C 1290.222656 334.867188 1276.027344 293.367188 1247.632812 260.058594 C 1219.785156 226.75 1183.746094 210.917969 1137.332031 210.917969 C 1091.464844 210.917969 1055.425781 226.75 1027.035156 260.058594 C 998.640625 293.367188 984.441406 335.414062 984.441406 384.554688 C 984.441406 434.246094 998.640625 475.742188 1027.035156 509.050781 C 1054.882812 542.359375 1090.921875 558.195312 1137.332031 558.195312 C 1183.199219 558.195312 1219.238281 542.359375 1247.632812 509.050781 C 1276.027344 476.289062 1290.222656 434.246094 1290.222656 384.554688 Z M 1742.886719 213.648438 C 1775.101562 253.507812 1792.027344 308.109375 1792.027344 375.273438 C 1792.027344 446.804688 1774.554688 505.773438 1739.609375 549.457031 C 1696.472656 602.96875 1629.308594 630.269531 1540.851562 630.269531 C 1521.195312 630.269531 1492.800781 628.632812 1455.125 624.8125 C 1430.007812 622.625 1410.351562 601.332031 1410.351562 575.667969 L 1410.351562 195.628906 C 1410.351562 170.511719 1429.460938 149.214844 1454.578125 147.03125 C 1504.816406 141.570312 1539.214844 139.386719 1559.964844 139.386719 C 1640.777344 138.839844 1702.480469 163.957031 1742.886719 213.648438 Z M 1705.753906 375.273438 C 1705.753906 267.15625 1656.613281 214.738281 1556.140625 214.738281 C 1540.308594 214.738281 1515.734375 216.375 1483.519531 219.652344 L 1483.519531 551.640625 C 1502.628906 552.734375 1525.019531 553.828125 1551.226562 553.828125 C 1609.652344 553.828125 1650.605469 534.167969 1676.816406 493.214844 C 1696.472656 462.09375 1705.753906 422.777344 1705.753906 375.273438 Z M 2075.421875 143.753906 L 1866.835938 143.753906 C 1838.988281 143.753906 1816.601562 166.140625 1816.601562 193.988281 L 1816.601562 576.214844 C 1816.601562 604.0625 1838.988281 626.449219 1866.835938 626.449219 L 2075.421875 626.449219 C 2096.171875 626.449219 2113.644531 609.523438 2113.644531 588.226562 C 2113.644531 566.929688 2096.714844 550.003906 2075.421875 550.003906 L 1901.78125 550.003906 L 1901.78125 410.21875 L 2051.941406 410.21875 C 2072.691406 410.21875 2090.164062 393.292969 2090.164062 371.996094 C 2090.164062 351.246094 2073.238281 333.773438 2051.941406 333.773438 L 1901.234375 333.773438 L 1901.234375 219.105469 L 2074.875 219.105469 C 2095.625 219.105469 2113.097656 202.179688 2113.097656 180.882812 C 2113.097656 160.679688 2096.171875 143.753906 2075.421875 143.753906 Z M 429.125 148.121094 C 411.652344 130.648438 383.257812 130.648438 365.785156 148.121094 L 177.402344 337.050781 C 150.648438 363.804688 150.648438 406.941406 177.402344 433.699219 L 366.332031 622.625 C 383.804688 640.101562 412.199219 640.101562 429.671875 622.625 C 447.144531 605.152344 447.144531 576.761719 429.671875 559.285156 L 255.488281 385.101562 L 429.125 211.460938 C 446.597656 193.988281 446.597656 165.59375 429.125 148.121094 Z M 2867.171875 337.050781 L 2678.242188 148.121094 C 2660.769531 130.648438 2632.375 130.648438 2614.902344 148.121094 C 2597.429688 165.59375 2597.429688 193.988281 2614.902344 211.460938 L 2789.089844 385.101562 L 2614.902344 559.285156 C 2597.429688 576.761719 2597.429688 605.152344 2614.902344 622.625 C 2632.378906 640.101562 2660.769531 640.101562 2678.242188 622.625 L 2867.171875 433.699219 C 2893.925781 406.941406 2893.925781 363.804688 2867.171875 337.050781 Z M 2507.335938 23.625 C 2484.402344 14.34375 2458.191406 25.265625 2448.910156 47.652344 L 2183.535156 688.152344 C 2174.253906 711.085938 2185.175781 737.292969 2207.5625 746.578125 C 2230.496094 755.859375 2256.703125 744.9375 2265.988281 722.550781 L 2531.359375 82.050781 C 2541.1875 59.117188 2530.269531 33.453125 2507.335938 23.625 Z M 2507.335938 23.625 " fill-opacity="1" fill-rule="nonzero"/></g><g clip-path="url(#1e6acabd4f)"><path fill="#10609d" d="M -253.949219 565.839844 C -261.59375 586.042969 -250.671875 608.429688 -229.925781 614.4375 C -190.0625 626.449219 -144.742188 632.457031 -94.507812 632.457031 C -30.074219 632.457031 22.34375 608.976562 61.660156 563.109375 C 100.425781 517.789062 120.085938 457.722656 120.085938 385.648438 C 120.085938 313.570312 100.972656 254.597656 63.296875 210.371094 C 21.25 161.773438 -37.71875 136.65625 -112.527344 136.65625 C -152.933594 136.65625 -191.15625 141.570312 -226.648438 151.945312 C -248.488281 157.949219 -259.410156 181.976562 -251.21875 202.726562 C -244.121094 220.746094 -224.464844 230.027344 -205.898438 225.113281 C -177.503906 216.921875 -146.925781 213.101562 -114.164062 213.101562 C -59.015625 213.101562 -19.699219 232.757812 5.417969 273.164062 C 24.527344 303.195312 34.355469 341.964844 34.355469 387.832031 C 34.355469 429.875 23.980469 467.554688 2.6875 498.675781 C -23.523438 537.992188 -59.015625 557.101562 -106.519531 557.101562 C -143.105469 557.101562 -176.414062 552.1875 -205.898438 542.90625 C -225.011719 536.898438 -245.757812 546.183594 -252.859375 565.292969 Z M -679.3125 207.640625 C -722.992188 255.691406 -744.835938 315.753906 -744.835938 385.648438 C -744.835938 456.085938 -722.449219 515.605469 -679.3125 563.109375 C -635.628906 611.160156 -578.292969 635.183594 -508.949219 635.183594 C -439.601562 635.183594 -382.269531 610.613281 -338.585938 563.109375 C -294.902344 515.605469 -273.0625 455.539062 -273.0625 385.648438 C -273.0625 315.753906 -294.902344 255.691406 -338.585938 207.640625 C -382.269531 159.589844 -440.148438 135.015625 -508.949219 135.015625 C -577.75 135.015625 -635.628906 159.589844 -679.3125 207.640625 Z M -661.292969 384.554688 C -661.292969 334.867188 -647.09375 293.367188 -618.703125 260.058594 C -590.851562 226.75 -554.816406 210.917969 -508.402344 210.917969 C -462.535156 210.917969 -426.496094 226.75 -398.101562 260.058594 C -369.710938 293.367188 -355.511719 335.414062 -355.511719 384.554688 C -355.511719 434.246094 -369.710938 475.742188 -398.101562 509.050781 C -425.949219 542.359375 -461.988281 558.195312 -508.402344 558.195312 C -554.269531 558.195312 -590.308594 542.359375 -618.703125 509.050781 C -647.09375 476.289062 -661.292969 434.246094 -661.292969 384.554688 Z M -1113.953125 213.648438 C -1146.171875 253.507812 -1163.097656 308.109375 -1163.097656 375.273438 C -1163.097656 446.804688 -1145.625 505.773438 -1110.679688 549.457031 C -1067.542969 602.96875 -1000.378906 630.269531 -911.921875 630.269531 C -892.265625 630.269531 -863.871094 628.632812 -826.195312 624.8125 C -801.078125 622.625 -781.417969 601.332031 -781.417969 575.667969 L -781.417969 195.628906 C -781.417969 170.511719 -800.53125 149.214844 -825.648438 147.03125 C -875.882812 141.570312 -910.285156 139.386719 -931.035156 139.386719 C -1011.847656 138.839844 -1073.546875 163.957031 -1113.953125 213.648438 Z M -1076.824219 375.273438 C -1076.824219 267.15625 -1027.679688 214.738281 -927.210938 214.738281 C -911.375 214.738281 -886.804688 216.375 -854.589844 219.652344 L -854.589844 551.640625 C -873.699219 552.734375 -896.085938 553.828125 -922.296875 553.828125 C -980.722656 553.828125 -1021.675781 534.167969 -1047.882812 493.214844 C -1067.542969 462.09375 -1076.824219 422.777344 -1076.824219 375.273438 Z M -1446.492188 143.753906 L -1237.90625 143.753906 C -1210.058594 143.753906 -1187.667969 166.140625 -1187.667969 193.988281 L -1187.667969 576.214844 C -1187.667969 604.0625 -1210.058594 626.449219 -1237.90625 626.449219 L -1446.492188 626.449219 C -1467.238281 626.449219 -1484.710938 609.523438 -1484.710938 588.226562 C -1484.710938 566.929688 -1467.785156 550.003906 -1446.492188 550.003906 L -1272.851562 550.003906 L -1272.851562 410.21875 L -1423.011719 410.21875 C -1443.761719 410.21875 -1461.234375 393.292969 -1461.234375 371.996094 C -1461.234375 351.246094 -1444.304688 333.773438 -1423.011719 333.773438 L -1272.304688 333.773438 L -1272.304688 219.105469 L -1445.945312 219.105469 C -1466.695312 219.105469 -1484.167969 202.179688 -1484.167969 180.882812 C -1484.167969 160.679688 -1467.238281 143.753906 -1446.492188 143.753906 Z M 199.804688 148.121094 C 217.277344 130.648438 245.671875 130.648438 263.144531 148.121094 L 451.527344 337.050781 C 478.28125 363.804688 478.28125 406.941406 451.527344 433.699219 L 262.597656 622.625 C 245.125 640.101562 216.730469 640.101562 199.257812 622.625 C 181.785156 605.152344 181.785156 576.761719 199.257812 559.285156 L 373.445312 385.101562 L 199.804688 211.460938 C 182.332031 193.988281 182.332031 165.59375 199.804688 148.121094 Z M -2238.242188 337.050781 L -2049.3125 148.121094 C -2031.839844 130.648438 -2003.445312 130.648438 -1985.972656 148.121094 C -1968.5 165.59375 -1968.5 193.988281 -1985.972656 211.460938 L -2160.15625 385.101562 L -1985.972656 559.285156 C -1968.5 576.761719 -1968.5 605.152344 -1985.972656 622.625 C -2003.445312 640.101562 -2031.839844 640.101562 -2049.3125 622.625 L -2238.242188 433.699219 C -2264.996094 406.941406 -2264.996094 363.804688 -2238.242188 337.050781 Z M -1878.402344 23.625 C -1855.46875 14.34375 -1829.261719 25.265625 -1819.976562 47.652344 L -1554.605469 688.152344 C -1545.324219 711.085938 -1556.242188 737.292969 -1578.628906 746.578125 C -1601.5625 755.859375 -1627.773438 744.9375 -1637.054688 722.550781 L -1902.429688 82.050781 C -1912.257812 59.117188 -1901.335938 33.453125 -1878.402344 23.625 Z M -1878.402344 23.625 " fill-opacity="1" fill-rule="nonzero"/></g><g clip-path="url(#4d49084096)"><path fill="#10609d" d="M 1290.875 223.238281 C 1270.125 196.902344 1197.054688 153.917969 1130.382812 154.0625 C 1036.226562 154.269531 978.882812 185.734375 922.230469 269.519531 C 880.0625 331.875 821.15625 408.300781 799.34375 435.492188 C 780.929688 458.445312 690.03125 555.980469 596.664062 490.550781 C 542.558594 452.628906 546.148438 385.191406 544.800781 367.667969 C 542.402344 336.546875 614.804688 163.285156 776.203125 296.652344 L 837.644531 224.039062 C 837.644531 224.039062 779.394531 157.011719 690.289062 153.820312 C 612.46875 151.03125 540.011719 176.160156 497.71875 230.953125 C 463.097656 275.808594 430.15625 354.222656 445.855469 421.128906 C 461.015625 485.765625 489.734375 524.066406 512.085938 543.210938 C 534.425781 562.367188 594.269531 602.261719 652.523438 602.261719 C 739.496094 602.261719 793.753906 574.332031 828.070312 537.625 C 862.375 500.921875 908.457031 449.683594 939.777344 404.367188 C 960.5625 374.304688 1011.597656 305.960938 1024.898438 290.527344 C 1038.191406 275.097656 1069.589844 246.769531 1102.5625 245.839844 C 1168.441406 243.988281 1208.09375 274.589844 1227.839844 294.25 Z M 1290.875 223.238281 " fill-opacity="1" fill-rule="nonzero"/></g></svg>