<svg xmlns="http://www.w3.org/2000/svg" xmlns:xlink="http://www.w3.org/1999/xlink" width="1920" zoomAndPan="magnify" viewBox="0 0 1440 809.999993" height="1080" preserveAspectRatio="xMidYMid meet" version="1.0"><defs><clipPath id="cf38085276"><path d="M 416 152 L 1343.273438 152 L 1343.273438 643 L 416 643 Z M 416 152 " clip-rule="nonzero"/></clipPath><clipPath id="914b6ec1ac"><path d="M 936 415 L 1343.273438 415 L 1343.273438 648 L 936 648 Z M 936 415 " clip-rule="nonzero"/></clipPath><clipPath id="526acde460"><path d="M 105 6 L 457.890625 6 L 457.890625 804 L 105 804 Z M 105 6 " clip-rule="nonzero"/></clipPath><clipPath id="c4749ae21d"><path d="M 96.390625 6 L 449 6 L 449 804 L 96.390625 804 Z M 96.390625 6 " clip-rule="nonzero"/></clipPath><clipPath id="09f3c722b8"><path d="M 416 152 L 900.023438 152 L 900.023438 643 L 416 643 Z M 416 152 " clip-rule="nonzero"/></clipPath></defs><g clip-path="url(#cf38085276)"><path fill="#f1f8fe" d="M 1343.59375 228.1875 C 1320.929688 199.417969 1241.109375 152.46875 1168.28125 152.625 C 1065.429688 152.851562 1002.789062 187.21875 940.90625 278.742188 C 894.839844 346.855469 830.5 430.34375 806.671875 460.042969 C 786.554688 485.117188 687.261719 591.65625 585.273438 520.1875 C 526.171875 478.765625 530.089844 405.097656 528.621094 385.957031 C 526 351.964844 605.089844 162.699219 781.390625 308.382812 L 848.507812 229.0625 C 848.507812 229.0625 784.875 155.847656 687.542969 152.359375 C 602.535156 149.3125 523.386719 176.761719 477.1875 236.617188 C 439.371094 285.613281 403.386719 371.269531 420.535156 444.351562 C 437.097656 514.960938 468.46875 556.796875 492.882812 577.710938 C 517.285156 598.632812 582.65625 642.214844 646.289062 642.214844 C 741.292969 642.214844 800.5625 611.703125 838.046875 571.609375 C 875.523438 531.515625 925.859375 475.542969 960.074219 426.046875 C 982.777344 393.207031 1038.523438 318.550781 1053.054688 301.695312 C 1067.574219 284.835938 1101.875 253.890625 1137.890625 252.875 C 1209.851562 250.855469 1253.167969 284.28125 1274.738281 305.757812 Z M 1343.59375 228.1875 " fill-opacity="1" fill-rule="nonzero"/></g><g clip-path="url(#914b6ec1ac)"><path fill="#f1f8fe" d="M 1277.148438 482.425781 C 1277.148438 482.425781 1217.882812 538.210938 1161.511719 538.792969 C 1130.957031 539.105469 1106.511719 533.546875 1082.105469 514.375 C 1067.457031 502.875 1033.289062 462.074219 1019.34375 415.585938 L 936.246094 524.835938 C 936.246094 524.835938 997.816406 593.375 1027.472656 611.414062 C 1069.023438 636.691406 1136.914062 660.375 1213.621094 638.875 C 1278.894531 620.578125 1326.136719 587.511719 1343.570312 576.183594 Z M 1277.148438 482.425781 " fill-opacity="1" fill-rule="nonzero"/></g><g clip-path="url(#526acde460)"><path fill="#f1f8fe" d="M 897.929688 602.429688 C 906.277344 624.5 894.347656 648.953125 871.683594 655.515625 C 828.140625 668.636719 778.636719 675.199219 723.761719 675.199219 C 653.378906 675.199219 596.117188 649.550781 553.171875 599.449219 C 510.824219 549.941406 489.351562 484.328125 489.351562 405.597656 C 489.351562 326.863281 510.226562 262.445312 551.382812 214.132812 C 597.308594 161.046875 661.726562 133.609375 743.445312 133.609375 C 787.582031 133.609375 829.335938 138.976562 868.105469 150.308594 C 891.964844 156.871094 903.894531 183.113281 894.945312 205.78125 C 887.191406 225.464844 865.71875 235.605469 845.4375 230.234375 C 814.421875 221.289062 781.019531 217.113281 745.234375 217.113281 C 684.992188 217.113281 642.042969 238.585938 614.605469 282.726562 C 593.730469 315.53125 582.996094 357.878906 582.996094 407.980469 C 582.996094 453.910156 594.328125 495.066406 617.589844 529.066406 C 646.21875 572.011719 684.992188 592.886719 736.882812 592.886719 C 776.847656 592.886719 813.230469 587.519531 845.4375 577.378906 C 866.316406 570.816406 888.980469 580.957031 896.734375 601.832031 Z M 1362.574219 211.148438 C 1410.292969 263.636719 1434.152344 329.25 1434.152344 405.597656 C 1434.152344 482.539062 1409.695312 547.554688 1362.574219 599.449219 C 1314.859375 651.9375 1252.230469 678.179688 1176.476562 678.179688 C 1100.726562 678.179688 1038.097656 651.339844 990.378906 599.449219 C 942.664062 547.554688 918.804688 481.945312 918.804688 405.597656 C 918.804688 329.25 942.664062 263.636719 990.378906 211.148438 C 1038.097656 158.660156 1101.324219 131.820312 1176.476562 131.820312 C 1251.632812 131.820312 1314.859375 158.660156 1362.574219 211.148438 Z M 1342.890625 404.402344 C 1342.890625 350.125 1327.382812 304.792969 1296.367188 268.410156 C 1265.949219 232.023438 1226.582031 214.726562 1175.882812 214.726562 C 1125.777344 214.726562 1086.410156 232.023438 1055.394531 268.410156 C 1024.378906 304.792969 1008.871094 350.722656 1008.871094 404.402344 C 1008.871094 458.683594 1024.378906 504.011719 1055.394531 540.398438 C 1085.816406 576.78125 1125.183594 594.078125 1175.882812 594.078125 C 1225.984375 594.078125 1265.351562 576.78125 1296.367188 540.398438 C 1327.382812 504.609375 1342.890625 458.683594 1342.890625 404.402344 Z M 1837.359375 217.710938 C 1872.554688 261.25 1891.042969 320.898438 1891.042969 394.261719 C 1891.042969 472.402344 1871.957031 536.820312 1833.78125 584.535156 C 1786.660156 642.988281 1713.296875 672.8125 1616.667969 672.8125 C 1595.195312 672.8125 1564.179688 671.023438 1523.023438 666.847656 C 1495.585938 664.460938 1474.113281 641.199219 1474.113281 613.167969 L 1474.113281 198.027344 C 1474.113281 170.589844 1494.992188 147.328125 1522.425781 144.941406 C 1577.300781 138.976562 1614.878906 136.589844 1637.546875 136.589844 C 1725.824219 135.992188 1793.222656 163.429688 1837.359375 217.710938 Z M 1796.800781 394.261719 C 1796.800781 276.164062 1743.121094 218.902344 1633.371094 218.902344 C 1616.074219 218.902344 1589.230469 220.691406 1554.039062 224.269531 L 1554.039062 586.921875 C 1574.917969 588.113281 1599.371094 589.308594 1628.003906 589.308594 C 1691.824219 589.308594 1736.558594 567.835938 1765.1875 523.101562 C 1786.660156 489.101562 1796.800781 446.15625 1796.800781 394.261719 Z M 2200.609375 141.363281 L 1972.757812 141.363281 C 1942.339844 141.363281 1917.882812 165.816406 1917.882812 196.238281 L 1917.882812 613.761719 C 1917.882812 644.183594 1942.339844 668.636719 1972.757812 668.636719 L 2200.609375 668.636719 C 2223.273438 668.636719 2242.359375 650.148438 2242.359375 626.886719 C 2242.359375 603.621094 2223.871094 585.132812 2200.609375 585.132812 L 2010.933594 585.132812 L 2010.933594 432.4375 L 2174.960938 432.4375 C 2197.625 432.4375 2216.714844 413.945312 2216.714844 390.683594 C 2216.714844 368.019531 2198.222656 348.933594 2174.960938 348.933594 L 2010.335938 348.933594 L 2010.335938 223.675781 L 2200.011719 223.675781 C 2222.679688 223.675781 2241.765625 205.183594 2241.765625 181.921875 C 2241.765625 159.851562 2223.273438 141.363281 2200.609375 141.363281 Z M 402.265625 146.132812 C 383.179688 127.046875 352.164062 127.046875 333.074219 146.132812 L 127.296875 352.511719 C 98.070312 381.738281 98.070312 428.859375 127.296875 458.085938 L 333.671875 664.460938 C 352.757812 683.550781 383.773438 683.550781 402.863281 664.460938 C 421.949219 645.375 421.949219 614.359375 402.863281 595.273438 L 212.589844 405 L 402.265625 215.324219 C 421.351562 196.238281 421.351562 165.222656 402.265625 146.132812 Z M 3065.484375 352.511719 L 2859.105469 146.132812 C 2840.019531 127.046875 2809.003906 127.046875 2789.917969 146.132812 C 2770.828125 165.222656 2770.828125 196.238281 2789.917969 215.324219 L 2980.1875 405 L 2789.917969 595.273438 C 2770.828125 614.359375 2770.828125 645.375 2789.917969 664.460938 C 2809.003906 683.550781 2840.019531 683.550781 2859.105469 664.460938 L 3065.484375 458.085938 C 3094.710938 428.859375 3094.710938 381.738281 3065.484375 352.511719 Z M 2672.414062 10.140625 C 2647.359375 0 2618.730469 11.929688 2608.589844 36.382812 L 2318.707031 736.039062 C 2308.570312 761.089844 2320.5 789.71875 2344.953125 799.859375 C 2370.003906 810 2398.636719 798.070312 2408.773438 773.617188 L 2698.65625 73.960938 C 2709.394531 48.910156 2697.464844 20.875 2672.414062 10.140625 Z M 2672.414062 10.140625 " fill-opacity="1" fill-rule="nonzero"/></g><g clip-path="url(#c4749ae21d)"><path fill="#87c8f2" d="M -343.894531 602.429688 C -352.246094 624.5 -340.316406 648.953125 -317.652344 655.515625 C -274.109375 668.636719 -224.601562 675.199219 -169.726562 675.199219 C -99.34375 675.199219 -42.085938 649.550781 0.859375 599.449219 C 43.210938 549.941406 64.683594 484.328125 64.683594 405.597656 C 64.683594 326.863281 43.808594 262.445312 2.652344 214.132812 C -43.277344 161.046875 -107.695312 133.609375 -189.410156 133.609375 C -233.550781 133.609375 -275.300781 138.976562 -314.074219 150.308594 C -337.929688 156.871094 -349.859375 183.113281 -340.914062 205.78125 C -333.160156 225.464844 -311.6875 235.605469 -291.40625 230.234375 C -260.390625 221.289062 -226.988281 217.113281 -191.199219 217.113281 C -130.957031 217.113281 -88.011719 238.585938 -60.574219 282.726562 C -39.699219 315.53125 -28.960938 357.878906 -28.960938 407.980469 C -28.960938 453.910156 -40.292969 495.066406 -63.558594 529.066406 C -92.1875 572.011719 -130.957031 592.886719 -182.851562 592.886719 C -222.8125 592.886719 -259.199219 587.519531 -291.40625 577.378906 C -312.28125 570.816406 -334.949219 580.957031 -342.703125 601.832031 Z M -808.542969 211.148438 C -856.257812 263.636719 -880.117188 329.25 -880.117188 405.597656 C -880.117188 482.539062 -855.664062 547.554688 -808.542969 599.449219 C -760.824219 651.9375 -698.195312 678.179688 -622.445312 678.179688 C -546.695312 678.179688 -484.066406 651.339844 -436.347656 599.449219 C -388.628906 547.554688 -364.773438 481.945312 -364.773438 405.597656 C -364.773438 329.25 -388.628906 263.636719 -436.347656 211.148438 C -484.066406 158.660156 -547.289062 131.820312 -622.445312 131.820312 C -697.601562 131.820312 -760.824219 158.660156 -808.542969 211.148438 Z M -788.859375 404.402344 C -788.859375 350.125 -773.351562 304.792969 -742.335938 268.410156 C -711.914062 232.023438 -672.546875 214.726562 -621.847656 214.726562 C -571.746094 214.726562 -532.378906 232.023438 -501.363281 268.410156 C -470.347656 304.792969 -454.839844 350.722656 -454.839844 404.402344 C -454.839844 458.683594 -470.347656 504.011719 -501.363281 540.398438 C -531.78125 576.78125 -571.148438 594.078125 -621.847656 594.078125 C -671.953125 594.078125 -711.320312 576.78125 -742.335938 540.398438 C -773.351562 504.609375 -788.859375 458.683594 -788.859375 404.402344 Z M -1283.328125 217.710938 C -1318.519531 261.25 -1337.011719 320.898438 -1337.011719 394.261719 C -1337.011719 472.402344 -1317.921875 536.820312 -1279.75 584.535156 C -1232.628906 642.988281 -1159.265625 672.8125 -1062.636719 672.8125 C -1041.164062 672.8125 -1010.148438 671.023438 -968.992188 666.847656 C -941.554688 664.460938 -920.082031 641.199219 -920.082031 613.167969 L -920.082031 198.027344 C -920.082031 170.589844 -940.957031 147.328125 -968.394531 144.941406 C -1023.269531 138.976562 -1060.847656 136.589844 -1083.511719 136.589844 C -1171.789062 135.992188 -1239.191406 163.429688 -1283.328125 217.710938 Z M -1242.769531 394.261719 C -1242.769531 276.164062 -1189.085938 218.902344 -1079.335938 218.902344 C -1062.039062 218.902344 -1035.199219 220.691406 -1000.007812 224.269531 L -1000.007812 586.921875 C -1020.882812 588.113281 -1045.339844 589.308594 -1073.96875 589.308594 C -1137.792969 589.308594 -1182.527344 567.835938 -1211.15625 523.101562 C -1232.628906 489.101562 -1242.769531 446.15625 -1242.769531 394.261719 Z M -1646.574219 141.363281 L -1418.726562 141.363281 C -1388.304688 141.363281 -1363.851562 165.816406 -1363.851562 196.238281 L -1363.851562 613.761719 C -1363.851562 644.183594 -1388.304688 668.636719 -1418.726562 668.636719 L -1646.574219 668.636719 C -1669.242188 668.636719 -1688.328125 650.148438 -1688.328125 626.886719 C -1688.328125 603.621094 -1669.839844 585.132812 -1646.574219 585.132812 L -1456.898438 585.132812 L -1456.898438 432.4375 L -1620.929688 432.4375 C -1643.59375 432.4375 -1662.679688 413.945312 -1662.679688 390.683594 C -1662.679688 368.019531 -1644.191406 348.933594 -1620.929688 348.933594 L -1456.304688 348.933594 L -1456.304688 223.675781 L -1645.980469 223.675781 C -1668.644531 223.675781 -1687.730469 205.183594 -1687.730469 181.921875 C -1687.730469 159.851562 -1669.242188 141.363281 -1646.574219 141.363281 Z M 151.765625 146.132812 C 170.855469 127.046875 201.871094 127.046875 220.957031 146.132812 L 426.738281 352.511719 C 455.964844 381.738281 455.964844 428.859375 426.738281 458.085938 L 220.359375 664.460938 C 201.273438 683.550781 170.257812 683.550781 151.171875 664.460938 C 132.082031 645.375 132.082031 614.359375 151.171875 595.273438 L 341.441406 405 L 151.765625 215.324219 C 132.679688 196.238281 132.679688 165.222656 151.765625 146.132812 Z M -2511.449219 352.511719 L -2305.074219 146.132812 C -2285.988281 127.046875 -2254.96875 127.046875 -2235.882812 146.132812 C -2216.796875 165.222656 -2216.796875 196.238281 -2235.882812 215.324219 L -2426.15625 405 L -2235.882812 595.273438 C -2216.796875 614.359375 -2216.796875 645.375 -2235.882812 664.460938 C -2254.972656 683.550781 -2285.988281 683.550781 -2305.074219 664.460938 L -2511.449219 458.085938 C -2540.675781 428.859375 -2540.675781 381.738281 -2511.449219 352.511719 Z M -2118.378906 10.140625 C -2093.328125 0 -2064.699219 11.929688 -2054.558594 36.382812 L -1764.675781 736.039062 C -1754.535156 761.089844 -1766.464844 789.71875 -1790.921875 799.859375 C -1815.972656 810 -1844.601562 798.070312 -1854.742188 773.617188 L -2144.625 73.960938 C -2155.359375 48.910156 -2143.433594 20.875 -2118.378906 10.140625 Z M -2118.378906 10.140625 " fill-opacity="1" fill-rule="nonzero"/></g><g clip-path="url(#09f3c722b8)"><path fill="#87c8f2" d="M 1343.59375 228.1875 C 1320.929688 199.417969 1241.109375 152.46875 1168.28125 152.625 C 1065.429688 152.851562 1002.789062 187.21875 940.90625 278.742188 C 894.839844 346.855469 830.5 430.34375 806.671875 460.042969 C 786.554688 485.117188 687.261719 591.65625 585.273438 520.1875 C 526.171875 478.765625 530.089844 405.097656 528.621094 385.957031 C 526 351.964844 605.089844 162.699219 781.390625 308.382812 L 848.507812 229.0625 C 848.507812 229.0625 784.875 155.847656 687.542969 152.359375 C 602.535156 149.3125 523.386719 176.761719 477.1875 236.617188 C 439.371094 285.613281 403.386719 371.269531 420.535156 444.351562 C 437.097656 514.960938 468.46875 556.796875 492.882812 577.710938 C 517.285156 598.632812 582.65625 642.214844 646.289062 642.214844 C 741.292969 642.214844 800.5625 611.703125 838.046875 571.609375 C 875.523438 531.515625 925.859375 475.542969 960.074219 426.046875 C 982.777344 393.207031 1038.523438 318.550781 1053.054688 301.695312 C 1067.574219 284.835938 1101.875 253.890625 1137.890625 252.875 C 1209.851562 250.855469 1253.167969 284.28125 1274.738281 305.757812 Z M 1343.59375 228.1875 " fill-opacity="1" fill-rule="nonzero"/></g></svg>