<svg xmlns="http://www.w3.org/2000/svg" xmlns:xlink="http://www.w3.org/1999/xlink" width="500" zoomAndPan="magnify" viewBox="0 0 375 374.999991" height="500" preserveAspectRatio="xMidYMid meet" version="1.0"><defs><clipPath id="5acfb5a995"><path d="M 71 0 L 309.070312 0 L 309.070312 375 L 71 375 Z M 71 0 " clip-rule="nonzero"/></clipPath><clipPath id="acf76d7110"><path d="M 65.5625 0 L 304 0 L 304 375 L 65.5625 375 Z M 65.5625 0 " clip-rule="nonzero"/></clipPath></defs><g clip-path="url(#5acfb5a995)"><path fill="#f1f8fe" d="M 606.664062 320.769531 C 612.300781 335.667969 604.25 352.175781 588.949219 356.605469 C 559.554688 365.464844 526.136719 369.890625 489.09375 369.890625 C 441.582031 369.890625 402.925781 352.578125 373.9375 318.757812 C 345.347656 285.335938 330.851562 241.046875 330.851562 187.898438 C 330.851562 134.746094 344.945312 91.261719 372.726562 58.648438 C 403.730469 22.8125 447.21875 4.289062 502.378906 4.289062 C 532.175781 4.289062 560.359375 7.914062 586.53125 15.5625 C 602.636719 19.992188 610.691406 37.710938 604.652344 53.011719 C 599.417969 66.296875 584.921875 73.140625 571.230469 69.519531 C 550.292969 63.480469 527.746094 60.660156 503.585938 60.660156 C 462.921875 60.660156 433.929688 75.15625 415.410156 104.953125 C 401.316406 127.097656 394.066406 155.683594 394.066406 189.507812 C 394.066406 220.511719 401.71875 248.292969 417.421875 271.242188 C 436.75 300.234375 462.921875 314.328125 497.949219 314.328125 C 524.929688 314.328125 549.488281 310.703125 571.230469 303.859375 C 585.324219 299.429688 600.625 306.273438 605.859375 320.367188 Z M 920.324219 56.632812 C 952.539062 92.066406 968.644531 136.359375 968.644531 187.894531 C 968.644531 239.835938 952.136719 283.726562 920.324219 318.757812 C 888.113281 354.1875 845.835938 371.90625 794.699219 371.90625 C 743.566406 371.90625 701.285156 353.785156 669.074219 318.757812 C 636.863281 283.726562 620.757812 239.433594 620.757812 187.894531 C 620.757812 136.359375 636.863281 92.066406 669.074219 56.632812 C 701.285156 21.199219 743.96875 3.082031 794.699219 3.082031 C 845.433594 3.082031 888.113281 21.203125 920.324219 56.632812 Z M 907.039062 187.089844 C 907.039062 150.449219 896.570312 119.847656 875.632812 95.289062 C 855.097656 70.726562 828.523438 59.050781 794.296875 59.050781 C 760.476562 59.050781 733.902344 70.726562 712.964844 95.289062 C 692.027344 119.847656 681.558594 150.851562 681.558594 187.089844 C 681.558594 223.730469 692.027344 254.332031 712.964844 278.894531 C 733.5 303.457031 760.074219 315.132812 794.296875 315.132812 C 828.121094 315.132812 854.695312 303.457031 875.632812 278.894531 C 896.570312 254.734375 907.039062 223.730469 907.039062 187.089844 Z M 1240.832031 61.0625 C 1264.589844 90.457031 1277.070312 130.722656 1277.070312 180.246094 C 1277.070312 232.992188 1264.183594 276.476562 1238.414062 308.691406 C 1206.605469 348.148438 1157.082031 368.28125 1091.851562 368.28125 C 1077.359375 368.28125 1056.421875 367.074219 1028.636719 364.253906 C 1010.117188 362.644531 995.621094 346.941406 995.621094 328.015625 L 995.621094 47.777344 C 995.621094 29.253906 1009.714844 13.550781 1028.234375 11.941406 C 1065.277344 7.914062 1090.644531 6.304688 1105.945312 6.304688 C 1165.539062 5.902344 1211.035156 24.421875 1240.832031 61.0625 Z M 1213.453125 180.246094 C 1213.453125 100.523438 1177.214844 61.867188 1103.128906 61.867188 C 1091.449219 61.867188 1073.332031 63.078125 1049.574219 65.492188 L 1049.574219 310.300781 C 1063.667969 311.105469 1080.175781 311.910156 1099.503906 311.910156 C 1142.585938 311.910156 1172.785156 297.417969 1192.113281 267.21875 C 1206.605469 244.265625 1213.453125 215.277344 1213.453125 180.246094 Z M 1486.042969 9.523438 L 1332.230469 9.523438 C 1311.699219 9.523438 1295.1875 26.03125 1295.1875 46.566406 L 1295.1875 328.417969 C 1295.1875 348.953125 1311.699219 365.464844 1332.230469 365.464844 L 1486.042969 365.464844 C 1501.34375 365.464844 1514.226562 352.980469 1514.226562 337.277344 C 1514.226562 321.574219 1501.746094 309.09375 1486.042969 309.09375 L 1358 309.09375 L 1358 206.015625 L 1468.730469 206.015625 C 1484.03125 206.015625 1496.914062 193.535156 1496.914062 177.832031 C 1496.914062 162.53125 1484.433594 149.644531 1468.730469 149.644531 L 1357.597656 149.644531 L 1357.597656 65.089844 L 1485.640625 65.089844 C 1500.941406 65.089844 1513.824219 52.609375 1513.824219 36.90625 C 1513.824219 22.007812 1501.34375 9.523438 1486.042969 9.523438 Z M 272.066406 12.746094 C 259.183594 -0.140625 238.246094 -0.140625 225.359375 12.746094 L 86.445312 152.0625 C 66.71875 171.789062 66.71875 203.601562 86.445312 223.328125 L 225.761719 362.644531 C 238.648438 375.527344 259.585938 375.527344 272.46875 362.644531 C 285.355469 349.761719 285.355469 328.824219 272.46875 315.9375 L 144.023438 187.492188 L 272.066406 59.453125 C 284.953125 46.566406 284.953125 25.628906 272.066406 12.746094 Z M 2069.878906 152.0625 L 1930.5625 12.746094 C 1917.679688 -0.140625 1896.742188 -0.140625 1883.855469 12.746094 C 1870.972656 25.628906 1870.972656 46.566406 1883.855469 59.453125 L 2012.300781 187.492188 L 1883.855469 315.9375 C 1870.972656 328.824219 1870.972656 349.761719 1883.855469 362.644531 C 1896.742188 375.53125 1917.679688 375.53125 1930.5625 362.644531 L 2069.878906 223.328125 C 2089.609375 203.601562 2089.609375 171.789062 2069.878906 152.0625 Z M 1804.535156 -79.058594 C 1787.625 -85.902344 1768.296875 -77.851562 1761.453125 -61.339844 L 1565.765625 410.960938 C 1558.921875 427.875 1566.976562 447.199219 1583.484375 454.046875 C 1600.394531 460.890625 1619.722656 452.835938 1626.566406 436.328125 L 1822.253906 -35.972656 C 1829.5 -52.886719 1821.445312 -71.808594 1804.535156 -79.058594 Z M 1804.535156 -79.058594 " fill-opacity="1" fill-rule="nonzero"/></g><g clip-path="url(#acf76d7110)"><path fill="#87c8f2" d="M -231.667969 320.769531 C -237.304688 335.667969 -229.25 352.175781 -213.949219 356.605469 C -184.558594 365.464844 -151.136719 369.890625 -114.09375 369.890625 C -66.582031 369.890625 -27.929688 352.578125 1.0625 318.757812 C 29.648438 285.335938 44.144531 241.046875 44.144531 187.898438 C 44.144531 134.746094 30.050781 91.261719 2.269531 58.648438 C -28.734375 22.8125 -72.21875 4.289062 -127.382812 4.289062 C -157.179688 4.289062 -185.363281 7.914062 -211.535156 15.5625 C -227.640625 19.992188 -235.695312 37.710938 -229.652344 53.011719 C -224.417969 66.296875 -209.925781 73.140625 -196.234375 69.519531 C -175.296875 63.480469 -152.75 60.660156 -128.589844 60.660156 C -87.921875 60.660156 -58.933594 75.15625 -40.410156 104.953125 C -26.316406 127.097656 -19.070312 155.683594 -19.070312 189.507812 C -19.070312 220.511719 -26.722656 248.292969 -42.425781 271.242188 C -61.75 300.234375 -87.921875 314.328125 -122.953125 314.328125 C -149.929688 314.328125 -174.492188 310.703125 -196.234375 303.859375 C -210.328125 299.429688 -225.628906 306.273438 -230.863281 320.367188 Z M -545.328125 56.632812 C -577.539062 92.066406 -593.644531 136.359375 -593.644531 187.894531 C -593.644531 239.835938 -577.136719 283.726562 -545.328125 318.757812 C -513.117188 354.1875 -470.839844 371.90625 -419.703125 371.90625 C -368.566406 371.90625 -326.289062 353.785156 -294.078125 318.757812 C -261.867188 283.726562 -245.761719 239.433594 -245.761719 187.894531 C -245.761719 136.359375 -261.867188 92.066406 -294.078125 56.632812 C -326.289062 21.199219 -368.96875 3.082031 -419.703125 3.082031 C -470.4375 3.082031 -513.117188 21.203125 -545.328125 56.632812 Z M -532.042969 187.089844 C -532.042969 150.449219 -521.574219 119.847656 -500.632812 95.289062 C -480.101562 70.726562 -453.523438 59.050781 -419.300781 59.050781 C -385.476562 59.050781 -358.902344 70.726562 -337.964844 95.289062 C -317.027344 119.847656 -306.558594 150.851562 -306.558594 187.089844 C -306.558594 223.730469 -317.027344 254.332031 -337.964844 278.894531 C -358.5 303.457031 -385.074219 315.132812 -419.300781 315.132812 C -453.121094 315.132812 -479.695312 303.457031 -500.632812 278.894531 C -521.574219 254.734375 -532.042969 223.730469 -532.042969 187.089844 Z M -865.835938 61.0625 C -889.589844 90.457031 -902.074219 130.722656 -902.074219 180.246094 C -902.074219 232.992188 -889.1875 276.476562 -863.417969 308.691406 C -831.609375 348.148438 -782.082031 368.28125 -716.855469 368.28125 C -702.359375 368.28125 -681.421875 367.074219 -653.640625 364.253906 C -635.117188 362.644531 -620.625 346.941406 -620.625 328.015625 L -620.625 47.777344 C -620.625 29.253906 -634.714844 13.550781 -653.238281 11.941406 C -690.28125 7.914062 -715.648438 6.304688 -730.949219 6.304688 C -790.539062 5.902344 -836.039062 24.421875 -865.835938 61.0625 Z M -838.453125 180.246094 C -838.453125 100.523438 -802.214844 61.867188 -728.128906 61.867188 C -716.453125 61.867188 -698.332031 63.078125 -674.578125 65.492188 L -674.578125 310.300781 C -688.671875 311.105469 -705.179688 311.910156 -724.503906 311.910156 C -767.589844 311.910156 -797.789062 297.417969 -817.113281 267.21875 C -831.609375 244.265625 -838.453125 215.277344 -838.453125 180.246094 Z M -1111.046875 9.523438 L -957.234375 9.523438 C -936.699219 9.523438 -920.191406 26.03125 -920.191406 46.566406 L -920.191406 328.417969 C -920.191406 348.953125 -936.699219 365.464844 -957.234375 365.464844 L -1111.046875 365.464844 C -1126.347656 365.464844 -1139.230469 352.980469 -1139.230469 337.277344 C -1139.230469 321.574219 -1126.75 309.09375 -1111.046875 309.09375 L -983.003906 309.09375 L -983.003906 206.015625 L -1093.730469 206.015625 C -1109.03125 206.015625 -1121.917969 193.535156 -1121.917969 177.832031 C -1121.917969 162.53125 -1109.433594 149.644531 -1093.730469 149.644531 L -982.601562 149.644531 L -982.601562 65.089844 L -1110.644531 65.089844 C -1125.941406 65.089844 -1138.828125 52.609375 -1138.828125 36.90625 C -1138.828125 22.007812 -1126.347656 9.523438 -1111.046875 9.523438 Z M 102.929688 12.746094 C 115.816406 -0.140625 136.753906 -0.140625 149.636719 12.746094 L 288.550781 152.0625 C 308.28125 171.789062 308.28125 203.601562 288.550781 223.328125 L 149.234375 362.644531 C 136.351562 375.527344 115.414062 375.527344 102.527344 362.644531 C 89.644531 349.761719 89.644531 328.824219 102.527344 315.9375 L 230.972656 187.492188 L 102.929688 59.453125 C 90.046875 46.566406 90.046875 25.628906 102.929688 12.746094 Z M -1694.882812 152.0625 L -1555.566406 12.746094 C -1542.679688 -0.140625 -1521.742188 -0.140625 -1508.859375 12.746094 C -1495.972656 25.628906 -1495.972656 46.566406 -1508.859375 59.453125 L -1637.304688 187.492188 L -1508.859375 315.9375 C -1495.976562 328.824219 -1495.976562 349.761719 -1508.859375 362.644531 C -1521.742188 375.53125 -1542.679688 375.53125 -1555.566406 362.644531 L -1694.882812 223.328125 C -1714.609375 203.601562 -1714.609375 171.789062 -1694.882812 152.0625 Z M -1429.539062 -79.058594 C -1412.628906 -85.902344 -1393.300781 -77.851562 -1386.453125 -61.339844 L -1190.769531 410.960938 C -1183.925781 427.875 -1191.976562 447.199219 -1208.484375 454.046875 C -1225.398438 460.890625 -1244.722656 452.835938 -1251.570312 436.328125 L -1447.253906 -35.972656 C -1454.503906 -52.886719 -1446.449219 -71.808594 -1429.539062 -79.058594 Z M -1429.539062 -79.058594 " fill-opacity="1" fill-rule="nonzero"/></g></svg>