<svg xmlns="http://www.w3.org/2000/svg" xmlns:xlink="http://www.w3.org/1999/xlink" width="500" zoomAndPan="magnify" viewBox="0 0 375 374.999991" height="500" preserveAspectRatio="xMidYMid meet" version="1.0"><defs><g/><clipPath id="1a5cba8b7f"><path d="M 40.992188 148 L 180.1875 148 L 180.1875 372.820312 L 40.992188 372.820312 Z M 40.992188 148 " clip-rule="nonzero"/></clipPath><clipPath id="d665a00a00"><path d="M 40.992188 297.609375 L 40.992188 151.867188 C 40.992188 150.589844 41.65625 149.402344 42.746094 148.738281 C 43.835938 148.070312 45.195312 148.023438 46.332031 148.605469 L 174.851562 214.515625 C 178.128906 216.199219 180.1875 219.570312 180.1875 223.253906 L 180.1875 368.996094 C 180.1875 370.273438 179.523438 371.457031 178.433594 372.125 C 177.34375 372.789062 175.984375 372.839844 174.851562 372.257812 L 46.332031 306.347656 C 43.054688 304.664062 40.992188 301.292969 40.992188 297.609375 Z M 40.992188 297.609375 " clip-rule="nonzero"/></clipPath><clipPath id="7b0ea32ff3"><path d="M 155.160156 155.488281 L 204.398438 155.488281 L 204.398438 177.160156 L 155.160156 177.160156 Z M 155.160156 155.488281 " clip-rule="nonzero"/></clipPath><clipPath id="694dc5b023"><path d="M 237.007812 132.160156 L 261.800781 132.160156 L 261.800781 156.84375 L 237.007812 156.84375 Z M 237.007812 132.160156 " clip-rule="nonzero"/></clipPath><clipPath id="28ec1f28b8"><path d="M 98.566406 133 L 124 133 L 124 158 L 98.566406 158 Z M 98.566406 133 " clip-rule="nonzero"/></clipPath><clipPath id="c1d6c75c8b"><path d="M 182.882812 157 L 316.382812 157 L 316.382812 373 L 182.882812 373 Z M 182.882812 157 " clip-rule="nonzero"/></clipPath><clipPath id="0c27a8a72e"><path d="M 182.882812 229.414062 L 182.882812 368.992188 C 182.882812 370.269531 183.546875 371.453125 184.636719 372.117188 C 185.726562 372.785156 187.085938 372.835938 188.222656 372.253906 L 311.304688 309.128906 C 314.582031 307.449219 316.640625 304.074219 316.640625 300.390625 L 316.640625 160.8125 C 316.640625 159.535156 315.976562 158.351562 314.886719 157.683594 C 313.796875 157.019531 312.441406 156.96875 311.304688 157.550781 L 188.222656 220.675781 C 184.945312 222.355469 182.882812 225.730469 182.882812 229.414062 Z M 182.882812 229.414062 " clip-rule="nonzero"/></clipPath><clipPath id="721ab15f06"><path d="M 155.160156 158.839844 L 204.398438 158.839844 L 204.398438 180.511719 L 155.160156 180.511719 Z M 155.160156 158.839844 " clip-rule="nonzero"/></clipPath><clipPath id="779e524908"><path d="M 237.007812 135.511719 L 261.800781 135.511719 L 261.800781 160.195312 L 237.007812 160.195312 Z M 237.007812 135.511719 " clip-rule="nonzero"/></clipPath><clipPath id="2511dd74a8"><path d="M 98.566406 136 L 124 136 L 124 162 L 98.566406 162 Z M 98.566406 136 " clip-rule="nonzero"/></clipPath><clipPath id="29a0ff9963"><path d="M 303 31 L 313 31 L 313 48 L 303 48 Z M 303 31 " clip-rule="nonzero"/></clipPath><clipPath id="6df8c038f6"><path d="M 267.429688 14.191406 L 354.917969 48.9375 L 318.128906 141.570312 L 230.640625 106.824219 Z M 267.429688 14.191406 " clip-rule="nonzero"/></clipPath><clipPath id="dd2f0f9ec6"><path d="M 267.429688 14.191406 L 354.917969 48.9375 L 318.128906 141.570312 L 230.640625 106.824219 Z M 267.429688 14.191406 " clip-rule="nonzero"/></clipPath><clipPath id="727c7f31a7"><path d="M 273 31 L 284 31 L 284 48 L 273 48 Z M 273 31 " clip-rule="nonzero"/></clipPath><clipPath id="1921f8de19"><path d="M 267.429688 14.191406 L 354.917969 48.9375 L 318.128906 141.570312 L 230.640625 106.824219 Z M 267.429688 14.191406 " clip-rule="nonzero"/></clipPath><clipPath id="e1688eee2e"><path d="M 267.429688 14.191406 L 354.917969 48.9375 L 318.128906 141.570312 L 230.640625 106.824219 Z M 267.429688 14.191406 " clip-rule="nonzero"/></clipPath><clipPath id="d842a3067e"><path d="M 249 56 L 266 56 L 266 66 L 249 66 Z M 249 56 " clip-rule="nonzero"/></clipPath><clipPath id="c2bd19fb29"><path d="M 267.429688 14.191406 L 354.917969 48.9375 L 318.128906 141.570312 L 230.640625 106.824219 Z M 267.429688 14.191406 " clip-rule="nonzero"/></clipPath><clipPath id="3edb6a40dd"><path d="M 267.429688 14.191406 L 354.917969 48.9375 L 318.128906 141.570312 L 230.640625 106.824219 Z M 267.429688 14.191406 " clip-rule="nonzero"/></clipPath><clipPath id="b91f184132"><path d="M 250 85 L 267 85 L 267 96 L 250 96 Z M 250 85 " clip-rule="nonzero"/></clipPath><clipPath id="f59888fd19"><path d="M 267.429688 14.191406 L 354.917969 48.9375 L 318.128906 141.570312 L 230.640625 106.824219 Z M 267.429688 14.191406 " clip-rule="nonzero"/></clipPath><clipPath id="0c08b3f305"><path d="M 267.429688 14.191406 L 354.917969 48.9375 L 318.128906 141.570312 L 230.640625 106.824219 Z M 267.429688 14.191406 " clip-rule="nonzero"/></clipPath><clipPath id="51c9ffe41e"><path d="M 304 102 L 314 102 L 314 119 L 304 119 Z M 304 102 " clip-rule="nonzero"/></clipPath><clipPath id="a1a586ec49"><path d="M 267.429688 14.191406 L 354.917969 48.9375 L 318.128906 141.570312 L 230.640625 106.824219 Z M 267.429688 14.191406 " clip-rule="nonzero"/></clipPath><clipPath id="88acbc8913"><path d="M 267.429688 14.191406 L 354.917969 48.9375 L 318.128906 141.570312 L 230.640625 106.824219 Z M 267.429688 14.191406 " clip-rule="nonzero"/></clipPath><clipPath id="fd0f43260b"><path d="M 321 85 L 338 85 L 338 94 L 321 94 Z M 321 85 " clip-rule="nonzero"/></clipPath><clipPath id="190c878c1b"><path d="M 267.429688 14.191406 L 354.917969 48.9375 L 318.128906 141.570312 L 230.640625 106.824219 Z M 267.429688 14.191406 " clip-rule="nonzero"/></clipPath><clipPath id="6eb4238289"><path d="M 267.429688 14.191406 L 354.917969 48.9375 L 318.128906 141.570312 L 230.640625 106.824219 Z M 267.429688 14.191406 " clip-rule="nonzero"/></clipPath><clipPath id="57e18dcd51"><path d="M 321 55 L 338 55 L 338 65 L 321 65 Z M 321 55 " clip-rule="nonzero"/></clipPath><clipPath id="bba9f08ff5"><path d="M 267.429688 14.191406 L 354.917969 48.9375 L 318.128906 141.570312 L 230.640625 106.824219 Z M 267.429688 14.191406 " clip-rule="nonzero"/></clipPath><clipPath id="b2eebbea72"><path d="M 267.429688 14.191406 L 354.917969 48.9375 L 318.128906 141.570312 L 230.640625 106.824219 Z M 267.429688 14.191406 " clip-rule="nonzero"/></clipPath><clipPath id="bb4c428af7"><path d="M 268 49 L 320 49 L 320 113 L 268 113 Z M 268 49 " clip-rule="nonzero"/></clipPath><clipPath id="ea3fac9f8e"><path d="M 267.429688 14.191406 L 354.917969 48.9375 L 318.128906 141.570312 L 230.640625 106.824219 Z M 267.429688 14.191406 " clip-rule="nonzero"/></clipPath><clipPath id="29530d33dc"><path d="M 267.429688 14.191406 L 354.917969 48.9375 L 318.128906 141.570312 L 230.640625 106.824219 Z M 267.429688 14.191406 " clip-rule="nonzero"/></clipPath><clipPath id="66f2814011"><path d="M 269 105 L 290 105 L 290 116 L 269 116 Z M 269 105 " clip-rule="nonzero"/></clipPath><clipPath id="29176c85a0"><path d="M 267.429688 14.191406 L 354.917969 48.9375 L 318.128906 141.570312 L 230.640625 106.824219 Z M 267.429688 14.191406 " clip-rule="nonzero"/></clipPath><clipPath id="65f1fbc03d"><path d="M 267.429688 14.191406 L 354.917969 48.9375 L 318.128906 141.570312 L 230.640625 106.824219 Z M 267.429688 14.191406 " clip-rule="nonzero"/></clipPath><clipPath id="c492cf6071"><path d="M 268 109 L 289 109 L 289 120 L 268 120 Z M 268 109 " clip-rule="nonzero"/></clipPath><clipPath id="a6e6da9da0"><path d="M 267.429688 14.191406 L 354.917969 48.9375 L 318.128906 141.570312 L 230.640625 106.824219 Z M 267.429688 14.191406 " clip-rule="nonzero"/></clipPath><clipPath id="88a133fddd"><path d="M 267.429688 14.191406 L 354.917969 48.9375 L 318.128906 141.570312 L 230.640625 106.824219 Z M 267.429688 14.191406 " clip-rule="nonzero"/></clipPath><clipPath id="f43c9acd42"><path d="M 266 113 L 287 113 L 287 124 L 266 124 Z M 266 113 " clip-rule="nonzero"/></clipPath><clipPath id="cefae28ac1"><path d="M 267.429688 14.191406 L 354.917969 48.9375 L 318.128906 141.570312 L 230.640625 106.824219 Z M 267.429688 14.191406 " clip-rule="nonzero"/></clipPath><clipPath id="409f651f3d"><path d="M 267.429688 14.191406 L 354.917969 48.9375 L 318.128906 141.570312 L 230.640625 106.824219 Z M 267.429688 14.191406 " clip-rule="nonzero"/></clipPath><clipPath id="8e09e16b50"><path d="M 270 118 L 281 118 L 281 126 L 270 126 Z M 270 118 " clip-rule="nonzero"/></clipPath><clipPath id="47d1e77e56"><path d="M 267.429688 14.191406 L 354.917969 48.9375 L 318.128906 141.570312 L 230.640625 106.824219 Z M 267.429688 14.191406 " clip-rule="nonzero"/></clipPath><clipPath id="37bbed130b"><path d="M 267.429688 14.191406 L 354.917969 48.9375 L 318.128906 141.570312 L 230.640625 106.824219 Z M 267.429688 14.191406 " clip-rule="nonzero"/></clipPath><clipPath id="5146c3a350"><path d="M 272.722656 54.238281 L 309.234375 54.238281 L 309.234375 84.175781 L 272.722656 84.175781 Z M 272.722656 54.238281 " clip-rule="nonzero"/></clipPath><clipPath id="b27ca040fe"><path d="M 272.839844 68 C 276.160156 60.988281 278.929688 59.140625 279.851562 58.773438 C 280.039062 58.585938 280.039062 58.773438 280.40625 58.585938 C 281.328125 58.402344 283.542969 56.1875 285.207031 55.449219 C 287.050781 54.710938 289.082031 54.710938 290.929688 54.527344 C 292.773438 54.34375 294.621094 54.34375 296.464844 54.710938 C 298.863281 54.894531 302.003906 55.265625 304.03125 56.371094 C 306.0625 57.664062 308.277344 59.695312 308.832031 62.09375 C 309.570312 64.679688 308.832031 68.925781 307.355469 71.507812 C 305.878906 74.09375 301.449219 77.414062 300.15625 77.96875 C 299.601562 78.152344 299.417969 77.785156 299.050781 77.96875 C 298.3125 78.335938 297.757812 80.367188 296.464844 80.921875 C 294.621094 81.84375 291.296875 81.105469 288.898438 81.660156 C 286.683594 82.027344 284.835938 84.242188 282.621094 84.058594 C 280.222656 83.691406 276.53125 80.738281 275.238281 78.707031 C 274.132812 77.046875 273.945312 73.90625 273.945312 73.167969 C 273.945312 73.167969 273.945312 73.167969 273.945312 72.984375 C 273.945312 72.429688 272.839844 68 272.839844 68 " clip-rule="nonzero"/></clipPath></defs><g clip-path="url(#1a5cba8b7f)"><g clip-path="url(#d665a00a00)"><path fill="#ffa63e" d="M 40.992188 374.996094 L 40.992188 146.082031 L 180.1875 146.082031 L 180.1875 374.996094 Z M 40.992188 374.996094 " fill-opacity="1" fill-rule="nonzero"/></g></g><g clip-path="url(#7b0ea32ff3)"><path fill="#ffbd59" d="M 181.179688 177.457031 C 173.371094 177.296875 166.800781 174.933594 161.253906 169.933594 C 159.4375 168.296875 157.90625 166.417969 156.648438 164.324219 C 156.433594 163.96875 156.191406 163.628906 155.972656 163.273438 C 154.304688 160.582031 155.386719 156.996094 158.503906 155.839844 C 160.984375 154.921875 163.71875 155.964844 164.835938 158.367188 C 165.808594 160.460938 167.289062 162.109375 169.078125 163.503906 C 171.84375 165.667969 175.003906 166.910156 178.492188 167.332031 C 181.570312 167.703125 184.558594 167.375 187.433594 166.195312 C 189.460938 165.367188 191.230469 164.164062 192.65625 162.492188 C 193.457031 161.546875 194.089844 160.507812 194.542969 159.359375 C 194.679688 159.015625 194.816406 158.667969 194.992188 158.347656 C 196.011719 156.480469 198.042969 155.503906 200.21875 155.824219 C 202.210938 156.121094 203.871094 157.757812 204.277344 159.792969 C 204.46875 160.753906 204.347656 161.671875 204.007812 162.578125 C 202.476562 166.683594 199.878906 169.984375 196.339844 172.554688 C 192.800781 175.128906 188.820312 176.625 184.480469 177.167969 C 183.261719 177.320312 182.035156 177.382812 181.179688 177.457031 " fill-opacity="1" fill-rule="nonzero"/></g><g clip-path="url(#694dc5b023)"><path fill="#ffbd59" d="M 261.800781 144.546875 C 261.78125 151.332031 256.179688 156.964844 249.148438 156.832031 C 242.621094 156.707031 237.089844 151.488281 237.011719 144.667969 C 236.925781 137.605469 242.597656 132.207031 249.308594 132.164062 C 256.257812 132.117188 261.816406 137.679688 261.800781 144.546875 " fill-opacity="1" fill-rule="nonzero"/></g><g clip-path="url(#28ec1f28b8)"><path fill="#ffbd59" d="M 123.484375 145.398438 C 123.488281 152.164062 117.972656 157.808594 110.953125 157.734375 C 104.261719 157.664062 98.800781 152.386719 98.695312 145.617188 C 98.578125 138.410156 104.433594 133.136719 110.945312 133.066406 C 117.671875 132.988281 123.480469 138.386719 123.484375 145.398438 " fill-opacity="1" fill-rule="nonzero"/></g><g clip-path="url(#c1d6c75c8b)"><g clip-path="url(#0c27a8a72e)"><path stroke-linecap="butt" transform="matrix(0, -0.75, 0.75, 0, 182.88402, 374.990747)" fill="none" stroke-linejoin="miter" d="M 194.102228 -0.00160959 L 7.998079 -0.00160959 C 6.294954 -0.00160959 4.716829 0.883807 3.831413 2.336932 C 2.940788 3.790057 2.87308 5.602557 3.649121 7.118181 L 87.81578 171.227541 C 90.055363 175.597332 94.555363 178.342124 99.46682 178.342124 L 285.57097 178.342124 C 287.274094 178.342124 288.852219 177.456707 289.742844 176.003582 C 290.628261 174.550457 290.695969 172.743166 289.919927 171.227541 L 205.753269 7.118181 C 203.513686 2.74839 199.013686 -0.00160959 194.102228 -0.00160959 Z M 194.102228 -0.00160959 " stroke="#145da0" stroke-width="12" stroke-opacity="1" stroke-miterlimit="4"/></g></g><g clip-path="url(#721ab15f06)"><path fill="#ffde59" d="M 181.179688 180.808594 C 173.371094 180.648438 166.800781 178.285156 161.253906 173.285156 C 159.4375 171.648438 157.90625 169.769531 156.648438 167.675781 C 156.433594 167.320312 156.191406 166.980469 155.972656 166.625 C 154.304688 163.929688 155.386719 160.347656 158.503906 159.191406 C 160.984375 158.273438 163.71875 159.316406 164.835938 161.71875 C 165.808594 163.8125 167.289062 165.460938 169.078125 166.855469 C 171.84375 169.015625 175.003906 170.261719 178.492188 170.683594 C 181.570312 171.054688 184.558594 170.726562 187.433594 169.546875 C 189.460938 168.71875 191.230469 167.515625 192.65625 165.839844 C 193.457031 164.898438 194.089844 163.859375 194.542969 162.707031 C 194.679688 162.367188 194.816406 162.019531 194.992188 161.695312 C 196.011719 159.828125 198.042969 158.855469 200.21875 159.175781 C 202.210938 159.472656 203.871094 161.105469 204.277344 163.144531 C 204.46875 164.105469 204.347656 165.023438 204.007812 165.929688 C 202.476562 170.03125 199.878906 173.332031 196.339844 175.90625 C 192.800781 178.480469 188.820312 179.976562 184.480469 180.519531 C 183.261719 180.671875 182.035156 180.734375 181.179688 180.808594 " fill-opacity="1" fill-rule="nonzero"/></g><g clip-path="url(#779e524908)"><path fill="#ffde59" d="M 261.800781 147.898438 C 261.78125 154.683594 256.179688 160.316406 249.148438 160.183594 C 242.621094 160.058594 237.089844 154.839844 237.011719 148.019531 C 236.925781 140.957031 242.597656 135.558594 249.308594 135.511719 C 256.257812 135.464844 261.816406 141.03125 261.800781 147.898438 " fill-opacity="1" fill-rule="nonzero"/></g><g clip-path="url(#2511dd74a8)"><path fill="#ffde59" d="M 123.484375 148.75 C 123.488281 155.515625 117.972656 161.160156 110.953125 161.085938 C 104.261719 161.015625 98.800781 155.734375 98.695312 148.96875 C 98.578125 141.761719 104.433594 136.488281 110.945312 136.414062 C 117.671875 136.339844 123.480469 141.738281 123.484375 148.75 " fill-opacity="1" fill-rule="nonzero"/></g><g fill="#145da0" fill-opacity="1"><g transform="translate(64.887442, 122.533579)"><g><path d="M 6.734375 -17.21875 L 22.484375 -29.375 C 23.609375 -30.25 24.847656 -30.609375 26.203125 -30.453125 C 27.566406 -30.296875 28.566406 -29.800781 29.203125 -28.96875 C 30.046875 -27.882812 30.394531 -26.648438 30.25 -25.265625 C 30.113281 -23.890625 29.460938 -22.75 28.296875 -21.84375 L 8.40625 -6.5 C 7.070312 -5.46875 5.78125 -5.039062 4.53125 -5.21875 C 3.289062 -5.394531 2.171875 -6.128906 1.171875 -7.421875 L -23.578125 -39.5 C -24.453125 -40.625 -24.785156 -41.878906 -24.578125 -43.265625 C -24.378906 -44.648438 -23.71875 -45.78125 -22.59375 -46.65625 C -21.457031 -47.519531 -20.1875 -47.878906 -18.78125 -47.734375 C -17.375 -47.597656 -16.234375 -46.96875 -15.359375 -45.84375 Z M 6.734375 -17.21875 "/></g></g></g><g fill="#145da0" fill-opacity="1"><g transform="translate(94.169359, 99.273099)"><g><path d="M 27.671875 -34.046875 C 29.128906 -30.585938 28.492188 -28.28125 25.765625 -27.125 L 6.28125 -18.859375 C 7.695312 -17.160156 9.378906 -16.109375 11.328125 -15.703125 C 13.285156 -15.304688 15.171875 -15.460938 16.984375 -16.171875 C 18.222656 -16.628906 19.273438 -17.226562 20.140625 -17.96875 C 21.003906 -18.71875 21.835938 -19.632812 22.640625 -20.71875 C 23.441406 -21.6875 24.367188 -22.378906 25.421875 -22.796875 C 26.484375 -23.210938 27.554688 -23.023438 28.640625 -22.234375 C 29.472656 -21.609375 30.015625 -20.789062 30.265625 -19.78125 C 30.523438 -18.769531 30.335938 -17.664062 29.703125 -16.46875 C 29.085938 -15.1875 28.019531 -13.734375 26.5 -12.109375 C 24.976562 -10.484375 22.710938 -9.03125 19.703125 -7.75 C 16.347656 -6.332031 13.054688 -5.867188 9.828125 -6.359375 C 6.609375 -6.859375 3.710938 -8.140625 1.140625 -10.203125 C -1.429688 -12.273438 -3.390625 -14.894531 -4.734375 -18.0625 C -6.109375 -21.320312 -6.628906 -24.554688 -6.296875 -27.765625 C -5.972656 -30.972656 -4.847656 -33.898438 -2.921875 -36.546875 C -1.003906 -39.203125 1.65625 -41.253906 5.0625 -42.703125 C 8.320312 -44.085938 11.460938 -44.554688 14.484375 -44.109375 C 17.515625 -43.671875 20.1875 -42.550781 22.5 -40.75 C 24.8125 -38.945312 26.535156 -36.710938 27.671875 -34.046875 Z M 3.46875 -24.890625 L 18.875 -31.421875 C 17.9375 -33.378906 16.484375 -34.628906 14.515625 -35.171875 C 12.554688 -35.722656 10.65625 -35.609375 8.8125 -34.828125 C 6.863281 -34.003906 5.390625 -32.703125 4.390625 -30.921875 C 3.398438 -29.148438 3.09375 -27.140625 3.46875 -24.890625 Z M 3.46875 -24.890625 "/></g></g></g><g fill="#145da0" fill-opacity="1"><g transform="translate(128.340305, 83.950523)"><g><path d="M 31.265625 -41.515625 C 32.316406 -41.648438 33.296875 -41.328125 34.203125 -40.546875 C 35.109375 -39.765625 35.648438 -38.71875 35.828125 -37.40625 L 39.515625 -10.140625 C 39.691406 -8.835938 39.515625 -7.679688 38.984375 -6.671875 C 38.453125 -5.671875 37.53125 -5.082031 36.21875 -4.90625 C 34.644531 -4.6875 33.519531 -5 32.84375 -5.84375 C 32.164062 -6.6875 31.738281 -7.757812 31.5625 -9.0625 L 31.53125 -9.3125 C 30.40625 -7.34375 28.9375 -5.769531 27.125 -4.59375 C 25.320312 -3.414062 23.054688 -2.640625 20.328125 -2.265625 C 17.296875 -1.859375 14.332031 -2.285156 11.4375 -3.546875 C 8.550781 -4.804688 6.078125 -6.734375 4.015625 -9.328125 C 1.953125 -11.929688 0.679688 -15.039062 0.203125 -18.65625 C -0.296875 -22.320312 0.0976562 -25.671875 1.390625 -28.703125 C 2.691406 -31.734375 4.582031 -34.226562 7.0625 -36.1875 C 9.550781 -38.15625 12.3125 -39.34375 15.34375 -39.75 C 18.019531 -40.113281 20.382812 -39.96875 22.4375 -39.3125 C 24.5 -38.65625 26.332031 -37.507812 27.9375 -35.875 C 27.675781 -37.800781 27.941406 -39.191406 28.734375 -40.046875 C 29.535156 -40.898438 30.378906 -41.390625 31.265625 -41.515625 Z M 20.1875 -12.109375 C 22.707031 -12.441406 24.726562 -13.578125 26.25 -15.515625 C 27.78125 -17.453125 28.367188 -19.753906 28.015625 -22.421875 C 27.660156 -25.046875 26.488281 -27.101562 24.5 -28.59375 C 22.507812 -30.082031 20.253906 -30.660156 17.734375 -30.328125 C 16.117188 -30.109375 14.671875 -29.5 13.390625 -28.5 C 12.109375 -27.5 11.144531 -26.25 10.5 -24.75 C 9.851562 -23.25 9.644531 -21.65625 9.875 -19.96875 C 10.09375 -18.300781 10.710938 -16.828125 11.734375 -15.546875 C 12.753906 -14.273438 14.015625 -13.328125 15.515625 -12.703125 C 17.015625 -12.085938 18.570312 -11.890625 20.1875 -12.109375 Z M 20.1875 -12.109375 "/></g></g></g><g fill="#145da0" fill-opacity="1"><g transform="translate(169.030289, 78.833313)"><g><path d="M 28.375 -34.625 C 30.21875 -34.4375 31.492188 -33.773438 32.203125 -32.640625 C 32.921875 -31.503906 33.21875 -30.304688 33.09375 -29.046875 C 32.96875 -27.773438 32.398438 -26.644531 31.390625 -25.65625 C 30.390625 -24.675781 29.046875 -24.269531 27.359375 -24.4375 C 24.617188 -24.707031 22.234375 -23.972656 20.203125 -22.234375 C 18.179688 -20.503906 17.019531 -18.117188 16.71875 -15.078125 L 15.5625 -3.546875 C 15.425781 -2.179688 14.804688 -1.046875 13.703125 -0.140625 C 12.609375 0.753906 11.378906 1.132812 10.015625 1 L 9.390625 0.9375 C 9.335938 0.925781 9.242188 0.914062 9.109375 0.90625 C 8.972656 0.894531 8.851562 0.882812 8.75 0.875 C 7.4375 0.738281 6.484375 0.175781 5.890625 -0.8125 C 5.304688 -1.800781 5.078125 -2.953125 5.203125 -4.265625 L 7.9375 -31.640625 C 8.0625 -32.953125 8.578125 -34.007812 9.484375 -34.8125 C 10.390625 -35.625 11.363281 -35.976562 12.40625 -35.875 C 13.300781 -35.789062 14.144531 -35.335938 14.9375 -34.515625 C 15.738281 -33.691406 16.046875 -32.3125 15.859375 -30.375 C 17.441406 -31.957031 19.28125 -33.125 21.375 -33.875 C 23.46875 -34.625 25.800781 -34.875 28.375 -34.625 Z M 28.375 -34.625 "/></g></g></g><g fill="#145da0" fill-opacity="1"><g transform="translate(196.253492, 80.266084)"><g><path d="M 34.5625 -27.53125 C 37.757812 -26.414062 40.3125 -24.65625 42.21875 -22.25 C 44.132812 -19.851562 45.328125 -17.117188 45.796875 -14.046875 C 46.265625 -10.972656 45.941406 -7.835938 44.828125 -4.640625 L 44.8125 -4.578125 L 44.671875 -4.1875 L 40.171875 8.75 C 39.703125 10.101562 38.835938 11.0625 37.578125 11.625 C 36.316406 12.195312 35.035156 12.257812 33.734375 11.8125 C 32.390625 11.34375 31.382812 10.488281 30.71875 9.25 C 30.0625 8.007812 29.96875 6.710938 30.4375 5.359375 L 35.28125 -8.546875 C 35.988281 -10.597656 35.976562 -12.585938 35.25 -14.515625 C 34.53125 -16.453125 33.019531 -17.820312 30.71875 -18.625 C 28.570312 -19.363281 26.5625 -19.25 24.6875 -18.28125 C 22.8125 -17.3125 21.5 -15.75 20.75 -13.59375 L 15.90625 0.3125 C 15.4375 1.664062 14.570312 2.628906 13.3125 3.203125 C 12.050781 3.773438 10.769531 3.832031 9.46875 3.375 C 8.175781 2.925781 7.171875 2.070312 6.453125 0.8125 C 5.742188 -0.4375 5.625 -1.738281 6.09375 -3.09375 L 15.125 -29.0625 C 15.539062 -30.257812 16.285156 -31.148438 17.359375 -31.734375 C 18.429688 -32.316406 19.46875 -32.4375 20.46875 -32.09375 C 21.257812 -31.820312 21.9375 -31.238281 22.5 -30.34375 C 23.0625 -29.445312 23.15625 -28.21875 22.78125 -26.65625 C 24.644531 -27.695312 26.613281 -28.257812 28.6875 -28.34375 C 30.757812 -28.4375 32.71875 -28.164062 34.5625 -27.53125 Z M 34.5625 -27.53125 "/></g></g></g><g clip-path="url(#29a0ff9963)"><g clip-path="url(#6df8c038f6)"><g clip-path="url(#dd2f0f9ec6)"><path fill="#ffde59" d="M 304.894531 47.179688 C 305.96875 47.605469 307.179688 47.078125 307.605469 46.007812 L 312.273438 34.257812 C 312.699219 33.1875 312.175781 31.972656 311.105469 31.546875 C 310.03125 31.121094 308.820312 31.644531 308.394531 32.714844 L 303.726562 44.46875 C 303.300781 45.539062 303.824219 46.753906 304.894531 47.179688 " fill-opacity="1" fill-rule="nonzero"/></g></g></g><g clip-path="url(#727c7f31a7)"><g clip-path="url(#1921f8de19)"><g clip-path="url(#e1688eee2e)"><path fill="#ffde59" d="M 279.058594 46.425781 C 279.285156 46.957031 279.707031 47.34375 280.203125 47.539062 C 280.699219 47.738281 281.273438 47.746094 281.800781 47.515625 C 282.859375 47.058594 283.347656 45.832031 282.890625 44.773438 L 277.882812 33.164062 C 277.425781 32.105469 276.195312 31.617188 275.136719 32.074219 C 274.078125 32.53125 273.59375 33.757812 274.050781 34.816406 L 279.058594 46.425781 " fill-opacity="1" fill-rule="nonzero"/></g></g></g><g clip-path="url(#d842a3067e)"><g clip-path="url(#c2bd19fb29)"><g clip-path="url(#3edb6a40dd)"><path fill="#ffde59" d="M 265.710938 64.085938 C 266.136719 63.015625 265.613281 61.800781 264.539062 61.375 L 252.789062 56.707031 C 251.71875 56.28125 250.503906 56.808594 250.078125 57.878906 C 249.652344 58.949219 250.175781 60.164062 251.25 60.589844 L 263 65.253906 C 264.070312 65.679688 265.285156 65.15625 265.710938 64.085938 " fill-opacity="1" fill-rule="nonzero"/></g></g></g><g clip-path="url(#b91f184132)"><g clip-path="url(#f59888fd19)"><g clip-path="url(#0c08b3f305)"><path fill="#ffde59" d="M 263.304688 86.089844 L 251.695312 91.101562 C 250.636719 91.558594 250.148438 92.785156 250.605469 93.84375 C 250.835938 94.375 251.257812 94.761719 251.753906 94.957031 C 252.25 95.152344 252.820312 95.160156 253.351562 94.933594 L 264.960938 89.925781 C 266.019531 89.46875 266.503906 88.238281 266.046875 87.179688 C 265.59375 86.121094 264.363281 85.632812 263.304688 86.089844 " fill-opacity="1" fill-rule="nonzero"/></g></g></g><g clip-path="url(#51c9ffe41e)"><g clip-path="url(#a1a586ec49)"><g clip-path="url(#88acbc8913)"><path fill="#ffde59" d="M 308.457031 104.023438 C 308 102.964844 306.769531 102.476562 305.714844 102.933594 C 304.65625 103.390625 304.167969 104.617188 304.625 105.675781 L 309.632812 117.285156 C 309.859375 117.816406 310.28125 118.203125 310.777344 118.398438 C 311.273438 118.597656 311.847656 118.605469 312.375 118.375 C 313.433594 117.917969 313.921875 116.691406 313.464844 115.632812 L 308.457031 104.023438 " fill-opacity="1" fill-rule="nonzero"/></g></g></g><g clip-path="url(#fd0f43260b)"><g clip-path="url(#190c878c1b)"><g clip-path="url(#6eb4238289)"><path fill="#ffde59" d="M 336.265625 89.859375 L 324.515625 85.195312 C 323.441406 84.769531 322.230469 85.292969 321.804688 86.363281 C 321.378906 87.433594 321.902344 88.648438 322.972656 89.074219 L 334.722656 93.742188 C 335.796875 94.167969 337.007812 93.644531 337.433594 92.570312 C 337.859375 91.5 337.335938 90.285156 336.265625 89.859375 " fill-opacity="1" fill-rule="nonzero"/></g></g></g><g clip-path="url(#57e18dcd51)"><g clip-path="url(#bba9f08ff5)"><g clip-path="url(#b2eebbea72)"><path fill="#ffde59" d="M 322.613281 64.382812 C 323.109375 64.578125 323.679688 64.585938 324.210938 64.359375 L 335.816406 59.351562 C 336.875 58.894531 337.363281 57.664062 336.90625 56.605469 C 336.453125 55.546875 335.222656 55.058594 334.164062 55.515625 L 322.554688 60.527344 C 321.496094 60.980469 321.007812 62.210938 321.464844 63.269531 C 321.695312 63.796875 322.117188 64.183594 322.613281 64.382812 " fill-opacity="1" fill-rule="nonzero"/></g></g></g><g clip-path="url(#bb4c428af7)"><g clip-path="url(#ea3fac9f8e)"><g clip-path="url(#29530d33dc)"><path fill="#ffde59" d="M 299.304688 61.257812 C 295.527344 59.757812 291.394531 59.816406 287.667969 61.425781 C 283.9375 63.035156 281.054688 66.003906 279.558594 69.777344 C 279.132812 70.847656 277.917969 71.371094 276.847656 70.945312 C 275.773438 70.523438 275.25 69.308594 275.675781 68.238281 C 276.640625 65.804688 278.054688 63.636719 279.878906 61.785156 C 281.636719 60 283.703125 58.589844 286.011719 57.59375 C 288.324219 56.597656 290.765625 56.0625 293.269531 56.007812 C 295.867188 55.949219 298.414062 56.410156 300.84375 57.378906 C 301.917969 57.800781 302.441406 59.015625 302.015625 60.085938 C 301.589844 61.160156 300.375 61.683594 299.304688 61.257812 Z M 303.609375 51.476562 C 290.695312 46.121094 275.777344 52.355469 270.523438 65.308594 C 268.234375 70.957031 268.132812 76.941406 269.820312 82.328125 C 271.316406 87.109375 271.777344 92.15625 271.3125 97.148438 C 270.875 101.832031 270.574219 106.503906 274.949219 108.242188 L 284.789062 112.148438 C 289.164062 113.886719 292.148438 110.28125 295.046875 106.574219 L 295.132812 106.460938 C 298.226562 102.5 302.09375 99.21875 306.460938 96.722656 C 311.261719 93.984375 315.199219 89.660156 317.394531 84.121094 C 322.496094 71.28125 316.328125 56.753906 303.609375 51.476562 " fill-opacity="1" fill-rule="nonzero"/></g></g></g><g clip-path="url(#66f2814011)"><g clip-path="url(#29176c85a0)"><g clip-path="url(#65f1fbc03d)"><path fill="#808080" d="M 270.59375 108.507812 L 287.777344 115.332031 C 288.539062 115.636719 289.40625 115.261719 289.710938 114.496094 C 290.015625 113.730469 289.640625 112.863281 288.875 112.558594 L 271.695312 105.734375 C 270.929688 105.429688 270.0625 105.804688 269.757812 106.570312 C 269.453125 107.335938 269.828125 108.203125 270.59375 108.507812 " fill-opacity="1" fill-rule="nonzero"/></g></g></g><g clip-path="url(#c492cf6071)"><g clip-path="url(#a6e6da9da0)"><g clip-path="url(#88a133fddd)"><path fill="#808080" d="M 287.335938 116.441406 L 270.152344 109.617188 C 269.386719 109.3125 268.519531 109.683594 268.214844 110.449219 C 267.914062 111.214844 268.285156 112.082031 269.050781 112.386719 L 286.234375 119.210938 C 287 119.515625 287.867188 119.140625 288.171875 118.375 C 288.476562 117.609375 288.101562 116.742188 287.335938 116.441406 " fill-opacity="1" fill-rule="nonzero"/></g></g></g><g clip-path="url(#f43c9acd42)"><g clip-path="url(#cefae28ac1)"><g clip-path="url(#409f651f3d)"><path fill="#808080" d="M 285.792969 120.320312 L 268.613281 113.496094 C 267.847656 113.191406 266.980469 113.566406 266.675781 114.332031 C 266.371094 115.097656 266.746094 115.960938 267.511719 116.265625 L 284.695312 123.089844 C 285.457031 123.394531 286.324219 123.019531 286.628906 122.253906 C 286.933594 121.492188 286.558594 120.625 285.792969 120.320312 " fill-opacity="1" fill-rule="nonzero"/></g></g></g><g clip-path="url(#8e09e16b50)"><g clip-path="url(#47d1e77e56)"><g clip-path="url(#37bbed130b)"><path fill="#808080" d="M 274.054688 124.832031 C 276.984375 125.996094 280.070312 125.15625 280.945312 122.949219 L 270.332031 118.734375 C 269.457031 120.941406 271.125 123.667969 274.054688 124.832031 " fill-opacity="1" fill-rule="nonzero"/></g></g></g><g clip-path="url(#5146c3a350)"><g clip-path="url(#b27ca040fe)"><path fill="#f9df0a" d="M 265.457031 47.144531 L 316.15625 47.144531 L 316.15625 91.441406 L 265.457031 91.441406 Z M 265.457031 47.144531 " fill-opacity="1" fill-rule="nonzero"/></g></g><g fill="#145da0" fill-opacity="1"><g transform="translate(265.075077, 98.733298)"><g><path d="M 21.796875 -39.28125 L 47.078125 -28.671875 C 48.234375 -28.191406 49.046875 -27.375 49.515625 -26.21875 C 49.984375 -25.070312 49.984375 -23.9375 49.515625 -22.8125 C 49.117188 -21.863281 48.359375 -21.1875 47.234375 -20.78125 C 46.109375 -20.382812 44.96875 -20.425781 43.8125 -20.90625 L 35.390625 -24.4375 L 23.109375 4.84375 C 22.617188 6.007812 21.785156 6.8125 20.609375 7.25 C 19.441406 7.6875 18.273438 7.664062 17.109375 7.1875 C 15.953125 6.695312 15.132812 5.882812 14.65625 4.75 C 14.175781 3.613281 14.179688 2.460938 14.671875 1.296875 L 26.953125 -27.984375 L 18.53125 -31.515625 C 17.363281 -32.003906 16.53125 -32.800781 16.03125 -33.90625 C 15.539062 -35.019531 15.484375 -36.023438 15.859375 -36.921875 C 16.328125 -38.046875 17.140625 -38.84375 18.296875 -39.3125 C 19.460938 -39.78125 20.628906 -39.769531 21.796875 -39.28125 Z M 21.796875 -39.28125 "/></g></g></g></svg>